<svg width="329" height="345" viewBox="0 0 329 345" fill="none" xmlns="http://www.w3.org/2000/svg">
<g clip-path="url(#clip0)">
<path d="M281.63 318.474C218.775 353.293 116.87 353.293 54.0144 318.474C-8.84081 283.654 -8.84081 227.207 54.0144 192.387C116.87 157.568 218.775 157.576 281.63 192.387C344.485 227.198 344.485 283.654 281.63 318.474Z" fill="#D6EBF8"/>
<path d="M137.385 271.789L190.347 302.148C190.896 302.429 191.505 302.575 192.122 302.575C192.74 302.575 193.348 302.429 193.898 302.148L303.365 238.941C303.578 238.869 303.764 238.731 303.896 238.548C304.027 238.364 304.098 238.144 304.098 237.918C304.098 237.693 304.027 237.473 303.896 237.289C303.764 237.106 303.578 236.968 303.365 236.895L246.942 204.474C246.395 204.197 245.789 204.057 245.176 204.066C244.563 204.074 243.962 204.231 243.423 204.523L137.352 269.702C137.14 269.784 136.959 269.929 136.832 270.118C136.705 270.307 136.639 270.529 136.643 270.757C136.646 270.984 136.719 271.205 136.852 271.389C136.985 271.574 137.171 271.713 137.385 271.789V271.789Z" fill="#B5DBF2"/>
<path d="M83.9813 286.78L27.689 254.293C27.4762 254.218 27.2919 254.079 27.1614 253.895C27.031 253.711 26.961 253.492 26.961 253.266C26.961 253.041 27.031 252.821 27.1614 252.637C27.2919 252.453 27.4762 252.314 27.689 252.239L83.8094 219.629C84.3585 219.351 84.9655 219.206 85.5811 219.206C86.1967 219.206 86.8036 219.351 87.3527 219.629L143.817 252.247C144.031 252.32 144.216 252.457 144.348 252.641C144.479 252.824 144.55 253.044 144.55 253.27C144.55 253.496 144.479 253.716 144.348 253.899C144.216 254.083 144.031 254.22 143.817 254.293L87.5246 286.78C86.9755 287.059 86.3685 287.204 85.7529 287.204C85.1373 287.204 84.5304 287.059 83.9813 286.78Z" fill="#B5DBF2"/>
<path d="M233.3 314.399C249.249 314.399 262.179 306.701 262.179 297.206C262.179 287.71 249.249 280.013 233.3 280.013C217.351 280.013 204.422 287.71 204.422 297.206C204.422 306.701 217.351 314.399 233.3 314.399Z" fill="#B5DBF2"/>
<path d="M274.2 294.636C289.995 294.636 302.8 287.012 302.8 277.607C302.8 268.202 289.995 260.578 274.2 260.578C258.404 260.578 245.599 268.202 245.599 277.607C245.599 287.012 258.404 294.636 274.2 294.636Z" fill="#B5DBF2"/>
<path d="M31.6006 231.879C31.5188 226.969 27.779 216.797 22.55 210.488C17.3209 204.179 9.19498 199.637 3.51584 201.675C-1.77051 203.59 -1.07494 210.554 5.46344 215.071C12.0018 219.588 21.8298 225.226 24.784 233.172L30.9132 242.877L31.6006 231.879Z" fill="#098B1B"/>
<path opacity="0.1" d="M31.6006 231.879C31.5188 226.969 27.779 216.797 22.55 210.488C17.3209 204.179 9.19498 199.637 3.51584 201.675C-1.77051 203.59 -1.07494 210.554 5.46344 215.071C12.0018 219.588 21.8298 225.226 24.784 233.172L30.9132 242.877L31.6006 231.879Z" fill="black"/>
<path d="M32.0834 238.614C32.0062 238.609 31.9327 238.579 31.8737 238.529C31.8147 238.479 31.7735 238.411 31.7561 238.336C28.1636 221.56 14.3095 208.123 6.10992 205.243C6.0199 205.211 5.94608 205.145 5.90466 205.059C5.86323 204.973 5.85759 204.875 5.88897 204.785C5.90364 204.739 5.92732 204.698 5.95858 204.662C5.98984 204.626 6.02804 204.597 6.07087 204.576C6.1137 204.555 6.16027 204.544 6.20777 204.542C6.25527 204.539 6.30271 204.547 6.34723 204.564C14.7023 207.493 28.8101 221.159 32.4598 238.18C32.4792 238.273 32.4608 238.371 32.4087 238.45C32.3565 238.53 32.2749 238.586 32.1816 238.606L32.0834 238.614Z" fill="white"/>
<path d="M29.8003 249.432C28.982 246.674 25.4959 242.157 19.9805 238.475C13.8512 234.383 6.15084 232.616 4.32598 229.4C2.14107 225.529 5.36525 221.781 11.6009 222.444C17.8364 223.107 28.9165 231.396 30.8887 244.146L29.8003 249.432Z" fill="#098B1B"/>
<path d="M30.9132 246.503C30.844 246.497 30.7779 246.472 30.7227 246.43C30.6675 246.388 30.6257 246.331 30.6023 246.265C25.1932 231.953 14.1049 227.043 8.9986 226.503C8.9512 226.498 8.90527 226.483 8.86349 226.46C8.82171 226.437 8.78491 226.406 8.75522 226.369C8.72553 226.332 8.70355 226.289 8.69054 226.243C8.67753 226.197 8.67376 226.149 8.67945 226.102C8.68446 226.055 8.69894 226.009 8.72201 225.968C8.74508 225.926 8.77627 225.89 8.81372 225.861C8.85117 225.832 8.89409 225.811 8.93992 225.799C8.98575 225.787 9.03355 225.784 9.08043 225.791C14.7268 226.421 25.7496 231.388 31.2733 246.012C31.2916 246.055 31.3009 246.103 31.3005 246.15C31.3001 246.198 31.29 246.245 31.2709 246.289C31.2517 246.332 31.2239 246.371 31.1892 246.404C31.1544 246.437 31.1135 246.462 31.0687 246.478C31.0186 246.495 30.966 246.503 30.9132 246.503V246.503Z" fill="white"/>
<path d="M298.209 215.586C298.209 215.586 297.636 207.109 300.582 199.899C303.528 192.69 308.479 187.624 313.676 186.241C318.872 184.858 324.068 188.942 319.011 193.328C313.954 197.714 304.51 202.976 302.17 216.347L298.209 215.586Z" fill="#098B1B"/>
<path opacity="0.15" d="M298.209 215.586C298.209 215.586 297.636 207.109 300.582 199.899C303.528 192.69 308.479 187.624 313.676 186.241C318.872 184.858 324.068 188.942 319.011 193.328C313.954 197.714 304.51 202.976 302.17 216.347L298.209 215.586Z" fill="black"/>
<path d="M299.396 213.131H299.339C299.265 213.116 299.2 213.072 299.157 213.01C299.114 212.947 299.097 212.871 299.109 212.796C302.178 198.001 311.769 190.3 316.417 188.295C316.486 188.265 316.565 188.264 316.636 188.291C316.706 188.319 316.763 188.373 316.793 188.443C316.824 188.512 316.825 188.591 316.797 188.661C316.77 188.732 316.715 188.789 316.646 188.819C312.096 190.783 302.735 198.344 299.674 212.911C299.659 212.973 299.624 213.029 299.573 213.069C299.523 213.109 299.46 213.131 299.396 213.131V213.131Z" fill="white"/>
<path d="M324.797 208.393C324.494 209.637 323.348 210.464 322.268 211.151C321.188 211.838 320.018 212.575 319.584 213.778C318.716 216.233 321.368 218.909 320.402 221.298C320.161 221.784 319.825 222.215 319.413 222.567C319.001 222.918 318.522 223.183 318.004 223.344C317.153 223.629 316.287 223.869 315.41 224.064C314.988 224.135 314.562 224.179 314.134 224.195C312.864 224.149 311.614 224.52 310.574 225.251C309.003 226.552 308.872 228.851 308.119 230.75C307.647 231.872 306.937 232.879 306.039 233.701C305.14 234.523 304.074 235.141 302.915 235.512C302.145 235.758 300.713 236.167 299.838 235.873L299.65 235.799C299.519 235.701 299.355 235.562 299.273 235.488V235.447C298.758 234.359 299.044 233.082 298.848 231.904C298.852 231.833 298.852 231.762 298.848 231.691C298.545 230.332 298.258 228.982 297.972 227.599C297.448 225.103 296.965 222.591 296.515 220.079C296.237 218.442 295.697 216.691 296.123 215.03C296.573 213.197 298.471 212.812 298.88 211.02C299.052 210.308 299.077 209.572 299.232 208.852C299.484 207.794 300.022 206.825 300.787 206.052C301.552 205.278 302.514 204.729 303.569 204.465C306.843 203.688 310.329 205.832 313.594 204.981C314.412 204.752 315.23 204.343 316.049 204.032C318.643 203.033 321.891 203.213 323.815 205.226C324.225 205.633 324.53 206.135 324.701 206.687C324.872 207.24 324.905 207.825 324.797 208.393Z" fill="#098B1B"/>
<g opacity="0.07">
<path opacity="0.07" d="M324.797 208.393C324.494 209.637 323.348 210.464 322.268 211.151C321.188 211.838 320.018 212.575 319.584 213.778C318.716 216.233 321.368 218.909 320.402 221.298C320.161 221.784 319.825 222.215 319.413 222.567C319.001 222.918 318.522 223.183 318.004 223.344C317.166 223.67 316.297 223.911 315.41 224.064C314.988 224.135 314.562 224.179 314.134 224.195C312.864 224.149 311.614 224.52 310.574 225.251C309.003 226.552 308.872 228.851 308.119 230.75C307.647 231.872 306.937 232.879 306.039 233.701C305.14 234.523 304.074 235.141 302.915 235.512C302.145 235.758 300.713 236.167 299.838 235.873L299.65 235.799C299.598 235.777 299.548 235.749 299.502 235.717C299.414 235.653 299.337 235.576 299.273 235.488V235.447C298.659 234.588 298.987 232.935 298.848 231.904C298.852 231.833 298.852 231.762 298.848 231.691C298.545 230.332 298.258 228.982 297.972 227.599C297.448 225.103 296.965 222.591 296.515 220.079C296.237 218.442 295.697 216.691 296.123 215.03C296.573 213.197 298.471 212.812 298.88 211.02C299.052 210.308 299.077 209.572 299.232 208.852C299.484 207.794 300.022 206.825 300.787 206.052C301.552 205.278 302.514 204.729 303.569 204.465C306.843 203.688 310.329 205.832 313.594 204.981C314.412 204.752 315.23 204.343 316.049 204.032C318.643 203.033 321.891 203.213 323.815 205.226C324.225 205.633 324.53 206.135 324.701 206.687C324.872 207.24 324.905 207.825 324.797 208.393Z" fill="#263238"/>
</g>
<path d="M297.988 230.251C297.913 230.242 297.844 230.205 297.795 230.148C297.746 230.09 297.722 230.015 297.726 229.94C299.159 211.896 316.826 206.094 321.122 205.619C321.198 205.612 321.273 205.635 321.333 205.682C321.392 205.729 321.431 205.798 321.441 205.873C321.446 205.911 321.443 205.949 321.433 205.985C321.422 206.022 321.405 206.056 321.381 206.086C321.358 206.115 321.328 206.14 321.295 206.158C321.262 206.177 321.225 206.188 321.188 206.192C316.982 206.65 299.699 212.338 298.275 229.989C298.269 230.06 298.236 230.127 298.183 230.176C298.13 230.224 298.06 230.251 297.988 230.251V230.251Z" fill="white"/>
<path d="M316.531 217.845C316.473 217.845 316.416 217.828 316.368 217.796C314.428 216.652 312.261 215.95 310.019 215.739C307.777 215.528 305.516 215.814 303.397 216.577C303.361 216.591 303.323 216.599 303.284 216.598C303.245 216.598 303.206 216.589 303.171 216.573C303.135 216.557 303.104 216.534 303.077 216.505C303.051 216.477 303.031 216.443 303.018 216.406C303.005 216.369 303 216.33 303.003 216.291C303.005 216.253 303.016 216.215 303.034 216.18C303.052 216.145 303.077 216.115 303.107 216.09C303.137 216.066 303.172 216.047 303.209 216.036C305.413 215.243 307.765 214.946 310.096 215.168C312.428 215.39 314.681 216.126 316.695 217.321C316.727 217.342 316.754 217.37 316.774 217.402C316.795 217.434 316.809 217.47 316.815 217.508C316.821 217.545 316.819 217.584 316.81 217.621C316.801 217.657 316.784 217.692 316.761 217.722C316.736 217.761 316.703 217.793 316.662 217.814C316.622 217.836 316.577 217.846 316.531 217.845Z" fill="white"/>
<path d="M147.09 128.255C147.769 127.422 148.098 126.359 148.008 125.288C147.919 124.217 147.417 123.223 146.609 122.514C145.801 121.806 144.75 121.439 143.676 121.49C142.603 121.541 141.591 122.007 140.855 122.789C140.855 122.372 140.92 121.971 140.92 121.512C140.919 119.308 140.34 117.143 139.242 115.232C138.144 113.321 136.564 111.731 134.661 110.62C132.757 109.51 130.596 108.917 128.392 108.901C126.188 108.885 124.018 109.447 122.099 110.531C122.395 109.837 122.548 109.091 122.549 108.337C122.55 107.363 122.292 106.405 121.802 105.562C121.312 104.719 120.607 104.022 119.759 103.541C118.911 103.06 117.95 102.813 116.975 102.824C116 102.836 115.046 103.106 114.21 103.608C114.305 102.963 114.354 102.312 114.357 101.66C114.372 98.4464 113.303 95.3217 111.322 92.7912C109.342 90.2606 106.565 88.4722 103.442 87.7151C100.319 86.9579 97.0318 87.2764 94.1121 88.619C91.1924 89.9615 88.8109 92.2497 87.3527 95.1134C86.9716 94.2181 86.3376 93.4535 85.5284 92.9133C84.7191 92.3731 83.7699 92.0807 82.7969 92.072C81.824 92.0633 80.8697 92.3387 80.0509 92.8644C79.2322 93.3901 78.5846 94.1432 78.1876 95.0315C76.9033 92.9634 74.9802 91.3699 72.7094 90.4922C70.4387 89.6144 67.9438 89.5003 65.6024 90.1671C63.261 90.8338 61.2005 92.2451 59.7327 94.1873C58.265 96.1296 57.4698 98.4971 57.4677 100.932C57.4724 101.493 57.5189 102.054 57.6068 102.609C56.9986 102.112 56.2617 101.797 55.4817 101.702C54.7017 101.607 53.9108 101.736 53.201 102.072C52.4912 102.409 51.8916 102.941 51.4721 103.605C51.0525 104.27 50.8302 105.039 50.8311 105.825C50.8311 105.825 50.8311 105.825 50.8311 105.874C49.3217 104.992 47.6041 104.529 45.8557 104.532C43.4502 104.535 41.1267 105.407 39.3131 106.987C37.4996 108.568 36.3183 110.75 35.9868 113.133C34.8689 112.711 33.653 112.621 32.4851 112.873C31.3173 113.126 30.2473 113.711 29.4037 114.557C28.5601 115.403 27.9789 116.475 27.7299 117.643C27.4809 118.812 27.5747 120.028 28 121.144C24.8628 122.394 22.259 124.697 20.6364 127.659C19.0138 130.62 18.4738 134.055 19.1092 137.371C19.7446 140.688 21.5158 143.68 24.1181 145.832C26.7204 147.984 29.9913 149.162 33.3682 149.163L85.5361 184.31L141.337 148.386C143.7 148.381 145.997 147.607 147.881 146.181C149.765 144.755 151.133 142.755 151.78 140.482C152.427 138.21 152.317 135.789 151.466 133.584C150.616 131.38 149.071 129.512 147.066 128.264L147.09 128.255ZM139.774 126.733C139.786 126.705 139.8 126.678 139.815 126.651C139.819 126.676 139.819 126.701 139.815 126.725L139.774 126.733Z" fill="#FFFBDE"/>
<path d="M45.8639 104.524C43.4584 104.527 41.1348 105.399 39.3213 106.979C37.5078 108.559 36.3265 110.742 35.995 113.125C34.8771 112.703 33.6612 112.613 32.4933 112.865C31.3255 113.118 30.2555 113.702 29.4119 114.549C28.5683 115.395 27.9871 116.467 27.7381 117.635C27.489 118.804 27.5828 120.019 28.0082 121.136C24.871 122.386 22.2672 124.689 20.6446 127.651C19.022 130.612 18.482 134.047 19.1174 137.363C19.7528 140.68 21.524 143.671 24.1263 145.823C26.7286 147.976 29.9994 149.154 33.3763 149.155L85.5443 184.302L137.524 150.841L138.858 145.841C131.779 155.031 122.32 147.715 122.32 147.715C122.32 147.715 121.599 152.404 117.639 152.69C116.541 152.796 115.437 152.568 114.472 152.035C113.506 151.501 112.725 150.689 112.23 149.704C111.715 151.798 110.588 153.691 108.992 155.142C107.396 156.592 105.403 157.534 103.269 157.846C95.5441 159.278 91.0352 150.8 91.0352 150.8C91.0352 150.8 89.5868 154.622 85.5443 153.599C81.5017 152.576 82.9338 150.325 82.9338 150.325C82.9338 150.325 80.6343 152.347 76.6818 150.235C72.7294 148.124 72.4593 141.938 72.4593 141.938C70.3714 142.763 68.0901 142.971 65.8875 142.535C63.6849 142.1 61.6541 141.04 60.0372 139.483C54.309 134.041 59.1616 126.561 59.1616 126.561C50.5529 128.247 50.872 121.185 50.872 121.185C38.8427 119.54 39.7101 107.74 45.8639 104.524Z" fill="#FFF9C5"/>
<path d="M98.9729 168.869L97.148 277.394L108.498 270.839L112.23 161.217L98.9729 168.869Z" fill="#FAFAFA"/>
<path d="M112.23 161.217L108.498 270.839L119.807 264.317L125.519 153.541L112.23 161.217Z" fill="#F8392E"/>
<path d="M89.2922 174.458C88.2001 175.028 86.9804 175.31 85.7488 175.276V282.779C86.9804 282.812 88.2001 282.531 89.2922 281.96L97.148 277.427L98.9729 168.901L89.2922 174.458Z" fill="#F8392E"/>
<path d="M131.059 257.82L138.719 253.393C139.766 252.707 140.655 251.807 141.328 250.752C142.001 249.696 142.442 248.51 142.622 247.272L152.229 138.124L138.858 145.841L131.059 257.82Z" fill="#F8392E"/>
<path d="M125.519 153.541L119.807 264.317L131.059 257.82L138.858 145.841L125.519 153.541Z" fill="#FAFAFA"/>
<path d="M72.533 168.869L74.3578 277.394L63.0077 270.839L59.2762 161.217L72.533 168.869Z" fill="#F8392E"/>
<path d="M59.2762 161.217L63.0077 270.839L51.6985 264.317L45.9785 153.541L59.2762 161.217Z" fill="#E6E6E6"/>
<path d="M82.1728 174.458C83.2654 175.026 84.4847 175.308 85.7161 175.276V282.779C84.4848 282.81 83.2656 282.529 82.1728 281.96L74.3251 277.427L72.5002 168.901L82.1728 174.458Z" fill="#E6E6E6"/>
<path d="M40.4384 257.82L32.779 253.393C31.731 252.708 30.8408 251.808 30.1677 250.753C29.4947 249.697 29.0542 248.511 28.8756 247.272L19.2685 138.124L32.648 145.841L40.4384 257.82Z" fill="#E6E6E6"/>
<path d="M45.9785 153.541L51.6985 264.317L40.4466 257.82L32.648 145.841L45.9785 153.541Z" fill="#F8392E"/>
<path opacity="0.1" d="M72.533 168.869L74.3578 277.394L63.0077 270.839L59.2762 161.217L72.533 168.869Z" fill="black"/>
<path opacity="0.1" d="M45.9785 153.541L51.6985 264.317L40.4466 257.82L32.648 145.841L45.9785 153.541Z" fill="black"/>
<path d="M82.9338 150.35C82.2865 151.243 81.4347 151.967 80.4497 152.462C79.4647 152.958 78.3754 153.21 77.2728 153.198C76.1703 153.186 75.0868 152.909 74.1131 152.392C73.1393 151.875 72.3038 151.132 71.6764 150.225C71.0491 149.318 70.6482 148.274 70.5074 147.181C70.3666 146.087 70.49 144.976 70.8672 143.94C71.2444 142.904 71.8645 141.973 72.6754 141.226C73.4864 140.479 74.4646 139.937 75.528 139.646C74.7837 140.677 74.3385 141.894 74.2415 143.162C74.1445 144.43 74.3995 145.7 74.9783 146.833C75.5572 147.965 76.4375 148.915 77.5221 149.579C78.6067 150.243 79.8536 150.595 81.1253 150.595C81.7366 150.597 82.3451 150.514 82.9338 150.35V150.35Z" fill="#F4E364"/>
<path d="M91.0352 150.8C91.1139 151.514 91.02 152.237 90.7615 152.908C90.5031 153.578 90.0875 154.177 89.5497 154.654C89.0119 155.131 88.3676 155.471 87.6708 155.647C86.9741 155.824 86.2452 155.83 85.5455 155.666C84.8457 155.502 84.1955 155.173 83.6494 154.706C83.1032 154.239 82.6771 153.647 82.4069 152.982C82.1366 152.316 82.03 151.595 82.0961 150.879C82.1621 150.163 82.3989 149.474 82.7865 148.869C82.8845 149.81 83.2801 150.696 83.9158 151.397C84.7185 152.278 85.8369 152.804 87.0267 152.863C88.2166 152.921 89.3811 152.506 90.266 151.708C90.5597 151.439 90.8181 151.134 91.0352 150.8Z" fill="#F4E364"/>
<path d="M63.5069 118.116C64.1117 119.039 64.4864 120.093 64.5996 121.19C64.7128 122.288 64.5613 123.396 64.1577 124.423C63.754 125.449 63.1101 126.364 62.2799 127.09C61.4497 127.817 60.4574 128.333 59.3862 128.597C58.3151 128.861 57.1963 128.863 56.1239 128.605C55.0514 128.347 54.0564 127.836 53.2224 127.114C52.3884 126.392 51.7397 125.48 51.3308 124.456C50.9218 123.431 50.7645 122.324 50.872 121.226C51.6547 122.42 52.7885 123.342 54.1171 123.864C55.4457 124.386 56.9037 124.484 58.2899 124.142C59.6761 123.801 60.9224 123.038 61.8568 121.959C62.7912 120.88 63.3677 119.537 63.5069 118.116Z" fill="#F4E364"/>
<path d="M52.8196 124.671C53.1526 125.308 53.3282 126.015 53.3316 126.733C53.335 127.451 53.1661 128.16 52.8391 128.799C52.512 129.439 52.0365 129.991 51.4522 130.408C50.8679 130.826 50.192 131.098 49.4811 131.2C48.7702 131.303 48.045 131.234 47.3664 130.998C46.6878 130.763 46.0756 130.368 45.581 129.847C45.0864 129.326 44.724 128.694 44.524 128.004C44.3241 127.315 44.2925 126.587 44.4318 125.882C44.8664 126.725 45.5608 127.405 46.4122 127.822C46.9409 128.084 47.5161 128.24 48.1049 128.28C48.6938 128.32 49.2848 128.243 49.8441 128.055C50.4034 127.866 50.9201 127.57 51.3647 127.181C51.8093 126.793 52.173 126.321 52.435 125.792C52.6104 125.436 52.7396 125.06 52.8196 124.671Z" fill="#F4E364"/>
<path d="M124.284 134.736C124.352 135.84 124.155 136.943 123.709 137.954C123.262 138.965 122.58 139.854 121.719 140.547C120.858 141.24 119.843 141.716 118.759 141.935C117.676 142.154 116.556 142.11 115.493 141.806C114.431 141.503 113.456 140.949 112.652 140.19C111.848 139.432 111.238 138.492 110.872 137.449C110.507 136.406 110.397 135.29 110.552 134.196C110.707 133.102 111.122 132.061 111.763 131.16C111.84 132.43 112.267 133.654 112.996 134.696C113.724 135.738 114.727 136.559 115.893 137.067C117.059 137.575 118.343 137.751 119.603 137.575C120.863 137.399 122.049 136.878 123.031 136.07C123.503 135.679 123.923 135.231 124.284 134.736V134.736Z" fill="#F4E364"/>
<path d="M131.755 131.48C131.833 132.194 131.74 132.917 131.481 133.587C131.223 134.258 130.807 134.857 130.269 135.333C129.731 135.81 129.087 136.151 128.39 136.327C127.694 136.503 126.965 136.509 126.265 136.346C125.565 136.182 124.915 135.853 124.369 135.385C123.823 134.918 123.397 134.327 123.126 133.661C122.856 132.995 122.75 132.274 122.816 131.558C122.882 130.843 123.119 130.153 123.506 129.548C123.598 130.505 123.997 131.406 124.644 132.118C125.446 132.998 126.565 133.525 127.755 133.583C128.944 133.641 130.109 133.226 130.994 132.429C131.288 132.147 131.544 131.828 131.755 131.48V131.48Z" fill="#F4E364"/>
<path d="M112.287 123.885C112.929 124.206 113.485 124.677 113.908 125.257C114.331 125.837 114.609 126.509 114.718 127.219C114.828 127.928 114.766 128.654 114.537 129.334C114.308 130.015 113.92 130.631 113.405 131.13C112.889 131.63 112.261 131.999 111.574 132.206C110.887 132.413 110.16 132.452 109.454 132.32C108.748 132.189 108.085 131.89 107.518 131.449C106.952 131.008 106.499 130.437 106.199 129.786C106.94 130.154 107.769 130.311 108.594 130.238C109.419 130.166 110.207 129.866 110.873 129.374C111.538 128.881 112.055 128.214 112.365 127.446C112.675 126.678 112.767 125.84 112.631 125.023C112.568 124.63 112.453 124.247 112.287 123.885V123.885Z" fill="#F4E364"/>
<path d="M257.727 38.8293C247.187 32.9537 232.727 33.9194 216.811 43.1255C184.463 61.7422 158.326 107.069 158.326 144.335C158.326 165.014 166.378 178.86 179.054 183.926C189.234 188.017 202.4 186.381 216.77 178.083C249.045 159.441 275.215 114.115 275.215 76.8484C275.215 58.0025 268.521 44.8194 257.727 38.8293ZM258.3 61.4313C255.027 65.0155 251.557 68.9271 248.095 73.0432C241.119 81.2906 234.564 89.8858 228.456 98.7958C227.637 100.023 226.819 101.21 226.115 102.323C225.33 101.74 224.354 101.474 223.382 101.578C223.628 100.711 223.873 99.8023 224.127 98.8531L222.858 100.776C222.073 100.194 221.097 99.9286 220.125 100.031C220.469 98.8531 220.813 97.5765 221.156 96.2344C223.683 86.5406 225.62 76.7028 226.958 66.7749C227.646 61.9796 228.161 57.2497 228.546 52.8635C236.434 50.7358 243.472 51.4805 249.053 54.7292C252.668 56.1054 255.857 58.4083 258.3 61.4067V61.4313ZM178.481 104.098C184.545 89.8024 193.988 76.2756 205.044 66.4558C205.166 67.8305 205.297 69.2217 205.461 70.621C206.394 69.7209 207.335 68.8453 208.3 67.9942C208.636 71.9385 209.119 76.0874 209.831 80.0726C211.03 87.8198 212.976 95.4329 215.641 102.806C215.976 103.747 216.361 104.614 216.664 105.416C215.591 106.596 214.673 107.908 213.931 109.319C213.202 109.049 212.441 108.755 211.623 108.501C205.23 106.593 198.605 105.572 191.934 105.465C188.532 105.325 185.125 105.383 181.73 105.637C181.975 105.056 182.229 104.467 182.482 103.894C181.132 103.91 179.798 103.984 178.481 104.074V104.098ZM184.586 165.833C183.634 165.022 182.75 164.135 181.942 163.181L181.345 164.294C174.978 158.885 171.132 149.564 171.132 136.946C171.132 136.013 171.181 135.047 171.181 134.106C174.725 132.903 178.546 131.52 182.417 129.941C190.45 126.636 198.215 122.713 205.641 118.206C206.713 117.535 207.736 116.897 208.677 116.259C208.701 117.339 209.027 118.391 209.618 119.295C210.436 118.787 211.197 118.296 211.926 117.805C211.944 118.934 212.301 120.031 212.949 120.956C212.13 121.971 211.312 123.1 210.428 124.286C205.003 131.709 198.423 141.668 192.491 151.807C189.675 156.512 187.024 161.25 184.586 165.808V165.833ZM220.035 164.851C214.307 168.173 208.718 170.153 203.669 170.767C203.972 169.998 204.274 169.22 204.569 168.443C203.205 168.796 201.819 169.056 200.42 169.22C202.261 164.564 204.053 159.63 205.764 154.605C209.147 144.756 212.012 134.737 214.348 124.589C214.642 123.288 214.863 122.028 215.117 120.85C215.714 120.636 216.287 120.362 216.827 120.031C217.406 119.693 217.954 119.304 218.464 118.869C218.679 119.837 218.953 120.79 219.282 121.725C219.282 121.807 219.331 121.881 219.348 121.962C219.577 121.856 219.806 121.725 220.043 121.594C220.624 121.258 221.172 120.869 221.68 120.432H221.721C221.92 121.401 222.177 122.358 222.49 123.296C224.614 130.277 227.504 137.001 231.107 143.345C232.721 146.266 234.502 149.091 236.442 151.807C231.607 156.897 226.084 161.287 220.035 164.851V164.851ZM252.449 122.863C252.375 123.034 252.285 123.206 252.195 123.378C249.692 121.563 247.068 119.922 244.339 118.468C243.742 118.133 243.12 117.814 242.506 117.503C238.363 115.647 234.042 114.216 229.61 113.231C228.75 113.035 227.899 112.887 227.155 112.789C227.277 112.503 227.376 112.224 227.474 111.971L226.377 111.717C225.567 111.528 224.748 111.383 223.922 111.283C224.499 109.901 224.844 108.433 224.945 106.938C225.886 106.496 226.917 105.948 227.94 105.408C236.034 100.907 243.81 95.8573 251.213 90.2934C255.059 87.4375 258.856 84.4015 262.4 81.5129C262.4 82.4539 262.449 83.3705 262.449 84.3033C262.449 84.7534 262.449 85.2035 262.449 85.6617L265.665 83.0595C265.665 84.0006 265.665 84.9089 265.665 85.8418C265.665 98.4194 261.819 112.233 255.46 124.974C254.495 124.196 253.488 123.509 252.449 122.838V122.863Z" fill="#CFCFD7"/>
<path opacity="0.4" d="M257.727 38.8293C247.187 32.9537 232.727 33.9194 216.811 43.1255C184.463 61.7422 158.326 107.069 158.326 144.335C158.326 165.014 166.378 178.86 179.054 183.926C189.234 188.017 202.4 186.381 216.77 178.083C249.045 159.441 275.215 114.115 275.215 76.8484C275.215 58.0025 268.521 44.8194 257.727 38.8293ZM258.3 61.4313C255.027 65.0155 251.557 68.9271 248.095 73.0432C241.119 81.2906 234.564 89.8858 228.456 98.7958C227.637 100.023 226.819 101.21 226.115 102.323C225.33 101.74 224.354 101.474 223.382 101.578C223.628 100.711 223.873 99.8023 224.127 98.8531L222.858 100.776C222.073 100.194 221.097 99.9286 220.125 100.031C220.469 98.8531 220.813 97.5765 221.156 96.2344C223.683 86.5406 225.62 76.7028 226.958 66.7749C227.646 61.9796 228.161 57.2497 228.546 52.8635C236.434 50.7358 243.472 51.4805 249.053 54.7292C252.668 56.1054 255.857 58.4083 258.3 61.4067V61.4313ZM178.481 104.098C184.545 89.8024 193.988 76.2756 205.044 66.4558C205.166 67.8305 205.297 69.2217 205.461 70.621C206.394 69.7209 207.335 68.8453 208.3 67.9942C208.636 71.9385 209.119 76.0874 209.831 80.0726C211.03 87.8198 212.976 95.4329 215.641 102.806C215.976 103.747 216.361 104.614 216.664 105.416C215.591 106.596 214.673 107.908 213.931 109.319C213.202 109.049 212.441 108.755 211.623 108.501C205.23 106.593 198.605 105.572 191.934 105.465C188.532 105.325 185.125 105.383 181.73 105.637C181.975 105.056 182.229 104.467 182.482 103.894C181.132 103.91 179.798 103.984 178.481 104.074V104.098ZM184.586 165.833C183.634 165.022 182.75 164.135 181.942 163.181L181.345 164.294C174.978 158.885 171.132 149.564 171.132 136.946C171.132 136.013 171.181 135.047 171.181 134.106C174.725 132.903 178.546 131.52 182.417 129.941C190.45 126.636 198.215 122.713 205.641 118.206C206.713 117.535 207.736 116.897 208.677 116.259C208.701 117.339 209.027 118.391 209.618 119.295C210.436 118.787 211.197 118.296 211.926 117.805C211.944 118.934 212.301 120.031 212.949 120.956C212.13 121.971 211.312 123.1 210.428 124.286C205.003 131.709 198.423 141.668 192.491 151.807C189.675 156.512 187.024 161.25 184.586 165.808V165.833ZM220.035 164.851C214.307 168.173 208.718 170.153 203.669 170.767C203.972 169.998 204.274 169.22 204.569 168.443C203.205 168.796 201.819 169.056 200.42 169.22C202.261 164.564 204.053 159.63 205.764 154.605C209.147 144.756 212.012 134.737 214.348 124.589C214.642 123.288 214.863 122.028 215.117 120.85C215.714 120.636 216.287 120.362 216.827 120.031C217.406 119.693 217.954 119.304 218.464 118.869C218.679 119.837 218.953 120.79 219.282 121.725C219.282 121.807 219.331 121.881 219.348 121.962C219.577 121.856 219.806 121.725 220.043 121.594C220.624 121.258 221.172 120.869 221.68 120.432H221.721C221.92 121.401 222.177 122.358 222.49 123.296C224.614 130.277 227.504 137.001 231.107 143.345C232.721 146.266 234.502 149.091 236.442 151.807C231.607 156.897 226.084 161.287 220.035 164.851V164.851ZM252.449 122.863C252.375 123.034 252.285 123.206 252.195 123.378C249.692 121.563 247.068 119.922 244.339 118.468C243.742 118.133 243.12 117.814 242.506 117.503C238.363 115.647 234.042 114.216 229.61 113.231C228.75 113.035 227.899 112.887 227.155 112.789C227.277 112.503 227.376 112.224 227.474 111.971L226.377 111.717C225.567 111.528 224.748 111.383 223.922 111.283C224.499 109.901 224.844 108.433 224.945 106.938C225.886 106.496 226.917 105.948 227.94 105.408C236.034 100.907 243.81 95.8573 251.213 90.2934C255.059 87.4375 258.856 84.4015 262.4 81.5129C262.4 82.4539 262.449 83.3705 262.449 84.3033C262.449 84.7534 262.449 85.2035 262.449 85.6617L265.665 83.0595C265.665 84.0006 265.665 84.9089 265.665 85.8418C265.665 98.4194 261.819 112.233 255.46 124.974C254.495 124.196 253.488 123.509 252.449 122.838V122.863Z" fill="white"/>
<path d="M257.727 38.8293C247.555 34.7377 234.389 36.3743 220.019 44.6721C187.736 63.2889 161.55 108.607 161.55 145.882C161.55 164.703 168.252 177.903 179.037 183.926C189.585 189.801 204.045 188.836 220.002 179.621C252.277 160.988 278.447 115.67 278.447 78.3951C278.463 57.7161 270.386 43.862 257.727 38.8293ZM227.449 111.922C227.837 110.796 228.074 109.624 228.153 108.436C229.086 107.986 230.117 107.445 231.14 106.897C239.236 102.399 247.014 97.3517 254.421 91.791C257.121 89.7779 259.797 87.6994 262.391 85.6126L265.607 83.0104C265.607 83.9515 265.607 84.8598 265.607 85.7927C265.607 98.3703 261.761 112.184 255.403 124.925C254.454 124.221 253.447 123.534 252.408 122.863C250.853 121.864 249.216 120.907 247.547 119.99C245.878 119.074 244.184 118.239 242.465 117.486C238.322 115.631 234.001 114.199 229.569 113.215C228.709 113.018 227.858 112.871 227.114 112.773C227.253 112.478 227.351 112.184 227.449 111.897V111.922ZM258.3 61.4313C255.027 65.0155 251.557 68.9271 248.095 73.0432C241.119 81.2906 234.564 89.8858 228.456 98.7958C227.637 100.023 226.819 101.21 226.115 102.323C225.33 101.74 224.354 101.474 223.382 101.578C223.628 100.711 223.873 99.8023 224.127 98.8531C224.217 98.5012 224.307 98.1411 224.405 97.7811C226.93 88.087 228.868 78.2492 230.207 68.3215C230.894 63.5426 231.402 58.8045 231.786 54.4101C238.218 52.6753 244.061 52.8553 249.053 54.7374C252.667 56.1112 255.856 58.4113 258.3 61.4067V61.4313ZM220.035 121.602C220.616 121.267 221.163 120.878 221.672 120.44H221.713C221.912 121.41 222.169 122.366 222.482 123.304C224.609 130.282 227.502 137.004 231.107 143.345C232.721 146.266 234.502 149.091 236.442 151.807C231.618 156.885 226.109 161.267 220.076 164.826C214.348 168.148 208.759 170.129 203.71 170.742C204.012 169.973 204.315 169.196 204.61 168.418C206.14 164.45 207.621 160.317 209.053 156.144C212.44 146.299 215.305 136.282 217.638 126.136C217.932 124.827 218.145 123.575 218.399 122.388C218.748 122.279 219.088 122.14 219.413 121.971C219.569 121.84 219.798 121.709 220.035 121.578V121.602ZM174.381 138.492C174.381 137.551 174.43 136.586 174.43 135.653C177.974 134.442 181.795 133.059 185.658 131.488C193.692 128.179 201.459 124.256 208.89 119.753L209.618 119.295C210.436 118.787 211.197 118.296 211.926 117.805C211.944 118.934 212.301 120.031 212.949 120.956C212.13 121.971 211.312 123.1 210.428 124.286C205.003 131.709 198.423 141.668 192.491 151.807C189.675 156.536 187.024 161.275 184.586 165.833C183.634 165.022 182.75 164.135 181.942 163.181C177.172 157.568 174.381 149.18 174.381 138.468V138.492ZM208.3 68.0188C208.636 71.9631 209.119 76.1119 209.831 80.0972C211.03 87.8444 212.976 95.4575 215.641 102.83C215.976 103.771 216.361 104.639 216.664 105.441C215.591 106.621 214.673 107.932 213.931 109.344C213.202 109.074 212.441 108.779 211.623 108.526C205.23 106.618 198.605 105.596 191.934 105.49C188.532 105.35 185.125 105.407 181.73 105.661C181.975 105.08 182.229 104.491 182.482 103.918C187.988 91.4896 195.783 80.2078 205.461 70.6619C206.394 69.7209 207.376 68.8453 208.3 67.9942V68.0188Z" fill="#CFCFD7"/>
<path opacity="0.15" d="M257.727 38.8293C247.555 34.7377 234.389 36.3743 220.019 44.6721C187.736 63.2889 161.55 108.607 161.55 145.882C161.55 164.703 168.252 177.903 179.037 183.926C189.585 189.801 204.045 188.836 220.002 179.621C252.277 160.988 278.447 115.67 278.447 78.3951C278.463 57.7161 270.386 43.862 257.727 38.8293ZM227.449 111.922C227.837 110.796 228.074 109.624 228.153 108.436C229.086 107.986 230.117 107.445 231.14 106.897C239.236 102.399 247.014 97.3517 254.421 91.791C257.121 89.7779 259.797 87.6994 262.391 85.6126L265.607 83.0104C265.607 83.9515 265.607 84.8598 265.607 85.7927C265.607 98.3703 261.761 112.184 255.403 124.925C254.454 124.221 253.447 123.534 252.408 122.863C250.853 121.864 249.216 120.907 247.547 119.99C245.878 119.074 244.184 118.239 242.465 117.486C238.322 115.631 234.001 114.199 229.569 113.215C228.709 113.018 227.858 112.871 227.114 112.773C227.253 112.478 227.351 112.184 227.449 111.897V111.922ZM258.3 61.4313C255.027 65.0155 251.557 68.9271 248.095 73.0432C241.119 81.2906 234.564 89.8858 228.456 98.7958C227.637 100.023 226.819 101.21 226.115 102.323C225.33 101.74 224.354 101.474 223.382 101.578C223.628 100.711 223.873 99.8023 224.127 98.8531C224.217 98.5012 224.307 98.1411 224.405 97.7811C226.93 88.087 228.868 78.2492 230.207 68.3215C230.894 63.5426 231.402 58.8045 231.786 54.4101C238.218 52.6753 244.061 52.8553 249.053 54.7374C252.667 56.1112 255.856 58.4113 258.3 61.4067V61.4313ZM220.035 121.602C220.616 121.267 221.163 120.878 221.672 120.44H221.713C221.912 121.41 222.169 122.366 222.482 123.304C224.609 130.282 227.502 137.004 231.107 143.345C232.721 146.266 234.502 149.091 236.442 151.807C231.618 156.885 226.109 161.267 220.076 164.826C214.348 168.148 208.759 170.129 203.71 170.742C204.012 169.973 204.315 169.196 204.61 168.418C206.14 164.45 207.621 160.317 209.053 156.144C212.44 146.299 215.305 136.282 217.638 126.136C217.932 124.827 218.145 123.575 218.399 122.388C218.748 122.279 219.088 122.14 219.413 121.971C219.569 121.84 219.798 121.709 220.035 121.578V121.602ZM174.381 138.492C174.381 137.551 174.43 136.586 174.43 135.653C177.974 134.442 181.795 133.059 185.658 131.488C193.692 128.179 201.459 124.256 208.89 119.753L209.618 119.295C210.436 118.787 211.197 118.296 211.926 117.805C211.944 118.934 212.301 120.031 212.949 120.956C212.13 121.971 211.312 123.1 210.428 124.286C205.003 131.709 198.423 141.668 192.491 151.807C189.675 156.536 187.024 161.275 184.586 165.833C183.634 165.022 182.75 164.135 181.942 163.181C177.172 157.568 174.381 149.18 174.381 138.468V138.492ZM208.3 68.0188C208.636 71.9631 209.119 76.1119 209.831 80.0972C211.03 87.8444 212.976 95.4575 215.641 102.83C215.976 103.771 216.361 104.639 216.664 105.441C215.591 106.621 214.673 107.932 213.931 109.344C213.202 109.074 212.441 108.779 211.623 108.526C205.23 106.618 198.605 105.596 191.934 105.49C188.532 105.35 185.125 105.407 181.73 105.661C181.975 105.08 182.229 104.491 182.482 103.918C187.988 91.4896 195.783 80.2078 205.461 70.6619C206.394 69.7209 207.376 68.8453 208.3 67.9942V68.0188Z" fill="black"/>
<path d="M212.949 120.931C212.13 121.946 211.312 123.075 210.428 124.262C205.003 131.684 198.423 141.643 192.491 151.782C189.675 156.512 187.024 161.25 184.586 165.808C183.634 164.997 182.75 164.11 181.942 163.157C184.209 158.934 186.656 154.589 189.25 150.235C195.183 140.105 201.762 130.146 207.188 122.715C208.006 121.537 208.89 120.399 209.7 119.393L209.618 119.27C210.436 118.763 211.197 118.272 211.926 117.781C211.944 118.91 212.301 120.007 212.949 120.931V120.931Z" fill="#CFCFD7"/>
<path opacity="0.4" d="M212.949 120.931C212.13 121.946 211.312 123.075 210.428 124.262C205.003 131.684 198.423 141.643 192.491 151.782C189.675 156.512 187.024 161.25 184.586 165.808C183.634 164.997 182.75 164.11 181.942 163.157C184.209 158.934 186.656 154.589 189.25 150.235C195.183 140.105 201.762 130.146 207.188 122.715C208.006 121.537 208.89 120.399 209.7 119.393L209.618 119.27C210.436 118.763 211.197 118.272 211.926 117.781C211.944 118.91 212.301 120.007 212.949 120.931V120.931Z" fill="black"/>
<path d="M236.434 151.807C231.609 156.885 226.101 161.267 220.068 164.826C214.34 168.148 208.751 170.129 203.702 170.742C204.004 169.973 204.307 169.196 204.602 168.418C208.911 167.282 213.042 165.552 216.876 163.279C222.909 159.718 228.417 155.337 233.243 150.26C231.283 147.546 229.477 144.723 227.834 141.807C224.279 135.518 221.425 128.858 219.323 121.946C219.552 121.84 219.782 121.709 220.019 121.578C220.599 121.242 221.147 120.853 221.655 120.416H221.696C221.896 121.385 222.152 122.341 222.466 123.28C224.596 130.267 227.494 136.996 231.107 143.345C232.718 146.266 234.497 149.091 236.434 151.807V151.807Z" fill="#CFCFD7"/>
<path opacity="0.3" d="M236.434 151.807C231.609 156.885 226.101 161.267 220.068 164.826C214.34 168.148 208.751 170.129 203.702 170.742C204.004 169.973 204.307 169.196 204.602 168.418C208.911 167.282 213.042 165.552 216.876 163.279C222.909 159.718 228.417 155.337 233.243 150.26" fill="black"/>
<path opacity="0.4" d="M231.107 143.345C227.512 136.986 224.633 130.248 222.523 123.255C222.21 122.317 221.953 121.36 221.754 120.391H221.713C221.204 120.828 220.656 121.217 220.076 121.553C219.839 121.684 219.61 121.815 219.381 121.922C221.463 128.839 224.297 135.507 227.834 141.807C229.453 144.722 231.235 147.544 233.169 150.26L236.442 151.807C234.502 149.091 232.721 146.266 231.107 143.345Z" fill="black"/>
<path d="M242.506 117.462C238.363 115.606 234.042 114.175 229.61 113.19C228.75 112.994 227.899 112.846 227.155 112.748C227.277 112.462 227.375 112.184 227.474 111.93C232.682 113.186 237.726 115.042 242.506 117.462V117.462Z" fill="#CFCFD7"/>
<path d="M265.648 85.7681C265.648 98.3457 261.802 112.159 255.444 124.9C254.495 124.196 253.488 123.509 252.449 122.838C258.439 110.702 262.13 97.6174 262.391 85.5881L265.607 82.9858C265.607 83.9269 265.648 84.8352 265.648 85.7681Z" fill="#CFCFD7"/>
<path opacity="0.4" d="M242.506 117.462C238.363 115.606 234.042 114.175 229.61 113.19C228.75 112.994 227.899 112.846 227.155 112.748C227.277 112.462 227.375 112.184 227.474 111.93C232.682 113.186 237.726 115.042 242.506 117.462V117.462Z" fill="black"/>
<path opacity="0.3" d="M265.648 85.7681C265.648 98.3457 261.802 112.159 255.444 124.9C254.495 124.196 253.488 123.509 252.449 122.838C258.439 110.702 262.13 97.6174 262.391 85.5881L265.607 82.9858C265.607 83.9269 265.648 84.8352 265.648 85.7681Z" fill="black"/>
<path d="M258.3 61.4067C255.027 64.991 251.557 68.9026 248.095 73.0187C241.119 81.2661 234.564 89.8613 228.456 98.7712C227.637 99.9987 226.819 101.185 226.115 102.298C225.33 101.715 224.354 101.449 223.382 101.554C223.628 100.686 223.873 99.7778 224.127 98.8285L225.207 97.1919C231.318 88.2866 237.873 79.6943 244.847 71.4475C248.308 67.3559 251.761 63.4034 255.059 59.8356C253.372 57.7889 251.336 56.0573 249.045 54.7211C252.663 56.0982 255.855 58.4041 258.3 61.4067Z" fill="#CFCFD7"/>
<path opacity="0.4" d="M258.3 61.4067C255.027 64.991 251.557 68.9026 248.095 73.0187C241.119 81.2661 234.564 89.8613 228.456 98.7712C227.637 99.9987 226.819 101.185 226.115 102.298C225.33 101.715 224.354 101.449 223.382 101.554C223.628 100.686 223.873 99.7778 224.127 98.8285L225.207 97.1919C231.318 88.2866 237.873 79.6943 244.847 71.4475C248.308 67.3559 251.761 63.4034 255.059 59.8356C253.372 57.7889 251.336 56.0573 249.045 54.7211C252.663 56.0982 255.855 58.4041 258.3 61.4067Z" fill="black"/>
<path d="M216.664 105.416C215.591 106.596 214.673 107.908 213.931 109.319C213.202 109.049 212.441 108.755 211.623 108.501C205.23 106.593 198.605 105.572 191.934 105.465C188.532 105.325 185.125 105.383 181.73 105.637C181.975 105.056 182.229 104.467 182.482 103.894C184.545 103.82 186.623 103.828 188.685 103.894C195.356 104.005 201.98 105.027 208.374 106.93C209.192 107.2 209.962 107.495 210.69 107.748C211.429 106.335 212.348 105.023 213.423 103.845C213.12 103.027 212.736 102.208 212.392 101.234C209.729 93.8583 207.784 86.2427 206.582 78.4933C206.14 75.8992 205.764 73.2315 205.461 70.5883C206.394 69.6881 207.335 68.8125 208.3 67.9615C208.636 71.9058 209.119 76.0547 209.831 80.0399C211.03 87.7871 212.976 95.4002 215.641 102.773C215.976 103.747 216.377 104.614 216.664 105.416Z" fill="#CFCFD7"/>
<path opacity="0.4" d="M213.423 103.878C212.348 105.056 211.429 106.368 210.69 107.781C209.962 107.503 209.192 107.208 208.374 106.963C201.98 105.059 195.356 104.038 188.685 103.927C186.623 103.837 184.545 103.828 182.482 103.927C182.229 104.499 181.975 105.089 181.73 105.67C185.125 105.415 188.532 105.358 191.934 105.498C198.605 105.604 205.23 106.626 211.623 108.534C212.441 108.804 213.202 109.098 213.931 109.352C214.673 107.94 215.591 106.629 216.664 105.449L213.423 103.878Z" fill="black"/>
<path opacity="0.3" d="M213.423 103.878C213.12 103.059 212.736 102.241 212.392 101.267C209.729 93.891 207.784 86.2754 206.582 78.526C206.14 75.9319 205.764 73.2642 205.461 70.621C206.394 69.7209 207.335 68.8453 208.3 67.9942C208.636 71.9385 209.119 76.0874 209.831 80.0726C211.03 87.8198 212.976 95.4329 215.641 102.806C215.976 103.747 216.361 104.614 216.664 105.416" fill="black"/>
<path d="M248.095 61.104L272.768 75.3346C271.978 74.8886 271.158 74.5002 270.313 74.1725C263.136 71.3166 253.856 72.4459 243.726 78.2641C220.976 91.3982 202.539 123.354 202.539 149.622C202.539 162.486 206.975 171.602 214.16 176.021L189.782 161.921C182.368 157.6 177.769 148.402 177.769 135.309C177.769 109.041 196.214 77.0939 218.963 63.9599C229.094 58.1089 238.374 56.9796 245.542 59.8683C246.41 60.2233 247.253 60.639 248.063 61.1122L248.095 61.104Z" fill="#455A64"/>
<path d="M191.991 158.173C185.649 154.482 182.172 146.365 182.172 135.334C182.172 110.49 199.675 80.1708 221.189 67.7487C226.917 64.4755 232.515 62.7161 237.416 62.7161C239.654 62.6966 241.875 63.0991 243.963 63.9026C244.633 64.1795 245.284 64.5021 245.91 64.8682L253.775 69.4099C249.496 70.5469 245.393 72.265 241.582 74.5162C217.67 88.3295 198.211 122.028 198.211 149.646C198.161 154.065 198.711 158.469 199.847 162.739L191.991 158.173Z" fill="#37474F"/>
<path d="M270.337 74.1726C263.169 71.3084 253.889 72.4459 243.758 78.2642C221.009 91.4064 202.564 123.345 202.564 149.622C202.564 162.903 207.286 172.183 214.896 176.43C222.326 180.571 232.515 179.891 243.758 173.394C266.508 160.301 284.953 128.321 284.953 102.053C284.953 87.503 279.273 77.7404 270.337 74.1726Z" fill="#37474F"/>
<path d="M177.916 132.183L202.695 146.487C202.793 144.605 202.99 142.699 203.26 140.759L178.489 126.455C178.194 128.397 178.004 130.307 177.916 132.183Z" fill="#455A64"/>
<path d="M211.05 69.459L235.821 83.7632C237.326 82.5603 238.865 81.431 240.42 80.3836L215.649 66.0875C214.094 67.1268 212.556 68.2888 211.05 69.459Z" fill="#455A64"/>
<path d="M199.323 81.1119C198.202 82.4539 197.122 83.8451 196.05 85.2608L220.829 99.565C221.876 98.1411 222.965 96.7582 224.102 95.4079L199.323 81.1119Z" fill="#455A64"/>
<path d="M186.018 102.085C185.265 103.673 184.561 105.277 183.906 106.897L208.677 121.201C209.332 119.565 210.035 117.961 210.788 116.39L186.018 102.085Z" fill="#455A64"/>
<path d="M272.768 75.3427C271.98 74.8907 271.16 74.4995 270.313 74.1725C263.504 71.4639 254.838 72.3395 245.321 77.4458C248.938 75.4573 254.544 72.4459 260.869 68.5261L272.768 75.3427Z" fill="#263238"/>
<path d="M243.758 78.2887C255.599 71.6357 303.226 48.0518 303.226 14.3042L278.463 0C278.463 33.7475 230.837 57.3315 218.996 63.9845L223.398 66.5212L227.138 64.0663L243.807 73.6979L239.478 75.8174L243.758 78.2887Z" fill="#455A64"/>
<path d="M227.138 64.0663C243.783 54.8438 277.244 34.8113 281.908 6.61203L299.142 16.571C297.178 44.5166 259.233 65.261 244.716 73.1987L243.807 73.6979L227.138 64.0663Z" fill="#37474F"/>
<path d="M257.981 38.011C256.731 39.1457 255.458 40.2559 254.159 41.3415L278.987 55.6049C280.28 54.5247 281.556 53.4118 282.8 52.2661L257.981 38.011Z" fill="#455A64"/>
<path d="M238.349 52.7898C236.77 53.7964 235.215 54.7538 233.717 55.6621L258.554 69.9255C260.048 69.0198 261.592 68.0624 263.185 67.0531L238.349 52.7898Z" fill="#455A64"/>
<path d="M272.727 20.2043C271.941 21.59 271.09 22.9539 270.174 24.2959L294.977 38.5429C295.885 37.209 296.736 35.8588 297.522 34.4513L272.727 20.2043Z" fill="#455A64"/>
<path d="M227.138 64.0663C223.259 66.1939 219.88 68.5261 219.88 68.5261L236.246 77.9777C236.246 77.9777 239.675 75.9647 243.807 73.6979L227.138 64.0663Z" fill="#37474F"/>
<path d="M280.452 51.9224C269.912 46.0469 255.452 47.0125 239.495 56.2186C207.22 74.8599 181.05 120.187 181.05 157.453C181.05 178.132 189.103 191.978 201.787 197.043C211.958 201.135 225.125 199.498 239.495 191.201C271.778 172.559 297.947 127.241 297.947 89.9661C297.947 71.1366 291.245 57.9534 280.452 51.9224ZM281.033 74.5244C277.759 78.1087 274.282 82.0202 270.82 86.1364C263.846 94.3858 257.291 102.981 251.18 111.889C250.362 113.116 249.544 114.303 248.84 115.416C248.055 114.833 247.079 114.567 246.107 114.671C246.352 113.804 246.606 112.895 246.852 111.946C246.41 112.609 245.992 113.247 245.591 113.869C244.805 113.288 243.83 113.023 242.858 113.125C243.202 111.946 243.546 110.67 243.889 109.328C246.412 99.6328 248.349 89.7953 249.691 79.868C250.378 75.0727 250.886 70.3428 251.27 65.9566C259.159 63.829 266.197 64.5737 271.786 67.8224C275.4 69.2153 278.586 71.5318 281.025 74.5408L281.033 74.5244ZM201.206 117.192C207.278 102.896 216.754 89.3687 227.768 79.5489C227.891 80.9237 228.03 82.3148 228.186 83.7142C229.119 82.814 230.065 81.9384 231.025 81.0873C231.361 85.0317 231.844 89.1805 232.555 93.1658C233.753 100.914 235.702 108.528 238.374 115.899C238.709 116.84 239.086 117.707 239.397 118.509C238.322 119.689 237.4 121.001 236.655 122.413C235.935 122.142 235.166 121.848 234.348 121.594C227.954 119.686 221.33 118.665 214.659 118.558C211.257 118.418 207.85 118.476 204.454 118.73C204.7 118.149 204.954 117.56 205.215 116.987C203.865 117.044 202.531 117.118 201.206 117.208V117.192ZM207.318 178.926C206.363 178.117 205.476 177.23 204.667 176.274L204.07 177.387C197.703 171.978 193.865 162.617 193.865 150.039C193.865 149.106 193.914 148.14 193.914 147.199C197.45 145.996 201.279 144.614 205.142 143.034C213.177 139.727 220.944 135.804 228.374 131.299C229.438 130.628 230.461 129.99 231.41 129.352C231.431 130.431 231.754 131.483 232.343 132.388C233.161 131.88 233.922 131.389 234.65 130.898C234.669 132.027 235.025 133.125 235.673 134.049C234.855 135.064 234.037 136.193 233.161 137.38C227.727 144.802 221.148 154.761 215.223 164.9C212.4 169.646 209.757 174.384 207.318 178.942V178.926ZM242.768 177.944C236.999 181.266 231.451 183.246 226.361 183.86C226.664 183.091 226.975 182.314 227.269 181.536C225.905 181.888 224.519 182.148 223.12 182.314C224.953 177.657 226.745 172.723 228.456 167.698C231.846 157.852 234.712 147.833 237.04 137.682C237.343 136.381 237.555 135.121 237.809 133.943C238.406 133.731 238.98 133.457 239.519 133.124C240.099 132.788 240.647 132.399 241.156 131.962H241.197C241.403 132.928 241.662 133.881 241.974 134.818L242.048 135.056C242.269 134.949 242.498 134.818 242.744 134.687C243.324 134.352 243.872 133.963 244.38 133.525H244.429C244.625 134.495 244.882 135.452 245.199 136.389C247.302 143.385 250.181 150.124 253.783 156.479C255.397 159.398 257.175 162.223 259.11 164.941C254.29 170.01 248.79 174.386 242.768 177.944ZM275.182 135.956C275.1 136.128 275.01 136.299 274.92 136.471C272.417 134.656 269.792 133.016 267.064 131.561C266.467 131.226 265.853 130.907 265.239 130.596C261.094 128.736 256.77 127.305 252.334 126.324C251.475 126.128 250.624 125.98 249.879 125.882C249.999 125.615 250.105 125.342 250.198 125.064L249.11 124.753C248.3 124.564 247.481 124.419 246.655 124.319C247.224 122.934 247.57 121.467 247.678 119.974C248.611 119.532 249.642 118.984 250.665 118.444C258.759 113.943 266.535 108.893 273.938 103.329C277.784 100.473 281.581 97.4374 285.124 94.5487C285.124 95.4898 285.173 96.4063 285.173 97.3392C285.173 97.7893 285.173 98.2393 285.173 98.6976C286.27 97.822 287.342 96.9464 288.398 96.0953C288.398 97.0364 288.398 97.9447 288.398 98.8776C288.398 111.455 284.56 125.268 278.193 138.01C277.228 137.322 276.224 136.643 275.182 135.972V135.956Z" fill="#CFCFD7"/>
<path opacity="0.4" d="M280.452 51.9224C269.912 46.0469 255.452 47.0125 239.495 56.2186C207.22 74.8599 181.05 120.187 181.05 157.453C181.05 178.132 189.103 191.978 201.787 197.043C211.958 201.135 225.125 199.498 239.495 191.201C271.778 172.559 297.947 127.241 297.947 89.9661C297.947 71.1366 291.245 57.9534 280.452 51.9224ZM281.033 74.5244C277.759 78.1087 274.282 82.0202 270.82 86.1364C263.846 94.3858 257.291 102.981 251.18 111.889C250.362 113.116 249.544 114.303 248.84 115.416C248.055 114.833 247.079 114.567 246.107 114.671C246.352 113.804 246.606 112.895 246.852 111.946C246.41 112.609 245.992 113.247 245.591 113.869C244.805 113.288 243.83 113.023 242.858 113.125C243.202 111.946 243.546 110.67 243.889 109.328C246.412 99.6328 248.349 89.7953 249.691 79.868C250.378 75.0727 250.886 70.3428 251.27 65.9566C259.159 63.829 266.197 64.5737 271.786 67.8224C275.4 69.2153 278.586 71.5318 281.025 74.5408L281.033 74.5244ZM201.206 117.192C207.278 102.896 216.754 89.3687 227.768 79.5489C227.891 80.9237 228.03 82.3148 228.186 83.7142C229.119 82.814 230.065 81.9384 231.025 81.0873C231.361 85.0317 231.844 89.1805 232.555 93.1658C233.753 100.914 235.702 108.528 238.374 115.899C238.709 116.84 239.086 117.707 239.397 118.509C238.322 119.689 237.4 121.001 236.655 122.413C235.935 122.142 235.166 121.848 234.348 121.594C227.954 119.686 221.33 118.665 214.659 118.558C211.257 118.418 207.85 118.476 204.454 118.73C204.7 118.149 204.954 117.56 205.215 116.987C203.865 117.044 202.531 117.118 201.206 117.208V117.192ZM207.318 178.926C206.363 178.117 205.476 177.23 204.667 176.274L204.07 177.387C197.703 171.978 193.865 162.617 193.865 150.039C193.865 149.106 193.914 148.14 193.914 147.199C197.45 145.996 201.279 144.614 205.142 143.034C213.177 139.727 220.944 135.804 228.374 131.299C229.438 130.628 230.461 129.99 231.41 129.352C231.431 130.431 231.754 131.483 232.343 132.388C233.161 131.88 233.922 131.389 234.65 130.898C234.669 132.027 235.025 133.125 235.673 134.049C234.855 135.064 234.037 136.193 233.161 137.38C227.727 144.802 221.148 154.761 215.223 164.9C212.4 169.646 209.757 174.384 207.318 178.942V178.926ZM242.768 177.944C236.999 181.266 231.451 183.246 226.361 183.86C226.664 183.091 226.975 182.314 227.269 181.536C225.905 181.888 224.519 182.148 223.12 182.314C224.953 177.657 226.745 172.723 228.456 167.698C231.846 157.852 234.712 147.833 237.04 137.682C237.343 136.381 237.555 135.121 237.809 133.943C238.406 133.731 238.98 133.457 239.519 133.124C240.099 132.788 240.647 132.399 241.156 131.962H241.197C241.403 132.928 241.662 133.881 241.974 134.818L242.048 135.056C242.269 134.949 242.498 134.818 242.744 134.687C243.324 134.352 243.872 133.963 244.38 133.525H244.429C244.625 134.495 244.882 135.452 245.199 136.389C247.302 143.385 250.181 150.124 253.783 156.479C255.397 159.398 257.175 162.223 259.11 164.941C254.29 170.01 248.79 174.386 242.768 177.944ZM275.182 135.956C275.1 136.128 275.01 136.299 274.92 136.471C272.417 134.656 269.792 133.016 267.064 131.561C266.467 131.226 265.853 130.907 265.239 130.596C261.094 128.736 256.77 127.305 252.334 126.324C251.475 126.128 250.624 125.98 249.879 125.882C249.999 125.615 250.105 125.342 250.198 125.064L249.11 124.753C248.3 124.564 247.481 124.419 246.655 124.319C247.224 122.934 247.57 121.467 247.678 119.974C248.611 119.532 249.642 118.984 250.665 118.444C258.759 113.943 266.535 108.893 273.938 103.329C277.784 100.473 281.581 97.4374 285.124 94.5487C285.124 95.4898 285.173 96.4063 285.173 97.3392C285.173 97.7893 285.173 98.2393 285.173 98.6976C286.27 97.822 287.342 96.9464 288.398 96.0953C288.398 97.0364 288.398 97.9447 288.398 98.8776C288.398 111.455 284.56 125.268 278.193 138.01C277.228 137.322 276.224 136.643 275.182 135.972V135.956Z" fill="white"/>
<path d="M280.452 51.9224C270.28 47.8308 257.113 49.4675 242.744 57.7652C210.461 76.4066 184.291 121.725 184.291 159C184.291 177.821 190.993 191.02 201.787 197.043C212.327 202.919 226.786 201.953 242.744 192.739C275.018 174.106 301.188 128.787 301.188 91.5128C301.188 70.8502 293.136 56.996 280.452 51.9224ZM250.174 125.015C250.562 123.889 250.798 122.717 250.878 121.529C251.819 121.079 252.85 120.539 253.873 119.99C261.966 115.492 269.742 110.445 277.146 104.884C279.846 102.871 282.522 100.793 285.116 98.7058C286.213 97.8302 287.285 96.9546 288.34 96.1035C288.34 97.0446 288.34 97.9529 288.34 98.8858C288.34 111.463 284.502 125.277 278.136 138.018C277.187 137.314 276.191 136.627 275.149 135.956C273.586 134.957 271.949 134 270.28 133.083C268.611 132.167 266.925 131.332 265.206 130.579C261.061 128.72 256.737 127.289 252.302 126.308C251.442 126.111 250.591 125.964 249.847 125.866C249.969 125.593 250.079 125.315 250.174 125.031V125.015ZM281.025 74.5408C277.751 78.125 274.273 82.0366 270.812 86.1528C263.838 94.4022 257.283 102.997 251.172 111.905C250.354 113.133 249.536 114.319 248.832 115.432C248.047 114.849 247.071 114.583 246.099 114.688C246.344 113.82 246.598 112.912 246.843 111.963C246.942 111.611 247.023 111.251 247.122 110.891C249.651 101.197 251.588 91.3594 252.923 81.431C253.611 76.6521 254.126 71.914 254.511 67.5196C260.935 65.7848 266.786 65.9648 271.778 67.8469C275.392 69.2317 278.58 71.5397 281.025 74.5408ZM242.76 134.712C243.34 134.376 243.888 133.987 244.397 133.55H244.446C244.641 134.52 244.898 135.477 245.215 136.414C247.318 143.41 250.198 150.148 253.799 156.504C255.413 159.423 257.192 162.248 259.126 164.965C254.3 170.042 248.792 174.424 242.76 177.985C236.991 181.307 231.443 183.287 226.353 183.901C226.655 183.132 226.966 182.354 227.261 181.577C228.783 177.608 230.264 173.476 231.696 169.302C235.083 159.457 237.948 149.441 240.28 139.294C240.575 137.985 240.788 136.733 241.05 135.547C241.4 135.438 241.739 135.298 242.064 135.129C242.293 134.974 242.564 134.843 242.768 134.712H242.76ZM197.098 151.602C197.098 150.661 197.147 149.695 197.147 148.762C200.69 147.551 204.512 146.168 208.382 144.597C216.414 141.289 224.178 137.366 231.606 132.862L232.335 132.404C233.153 131.897 233.914 131.406 234.642 130.915C234.661 132.044 235.017 133.141 235.665 134.065C234.847 135.08 234.028 136.209 233.153 137.396C227.719 144.818 221.14 154.777 215.215 164.916C212.392 169.646 209.749 174.384 207.31 178.942C206.354 178.133 205.468 177.247 204.659 176.291C199.896 170.702 197.106 162.314 197.106 151.602H197.098ZM231.017 81.1283C231.353 85.0726 231.835 89.2215 232.547 93.2067C233.745 100.955 235.694 108.569 238.366 115.94C238.701 116.881 239.077 117.748 239.388 118.55C238.313 119.73 237.392 121.042 236.647 122.453C235.927 122.183 235.158 121.889 234.339 121.635C227.946 119.727 221.322 118.706 214.651 118.599C211.249 118.459 207.841 118.517 204.446 118.771C204.692 118.19 204.945 117.601 205.207 117.028C210.71 104.6 218.502 93.3178 228.177 83.7714C229.116 82.8604 230.065 81.9793 231.025 81.1283H231.017Z" fill="#CFCFD7"/>
<path d="M235.673 134.065C234.855 135.08 234.037 136.209 233.161 137.396C227.727 144.818 221.148 154.777 215.223 164.916C212.4 169.646 209.757 174.384 207.318 178.942C206.363 178.133 205.476 177.247 204.667 176.291C206.942 172.068 209.389 167.723 211.975 163.369C217.908 153.239 224.487 143.28 229.912 135.849C230.731 134.671 231.614 133.533 232.433 132.527L232.343 132.404C233.161 131.897 233.922 131.406 234.65 130.915C234.669 132.044 235.025 133.141 235.673 134.065Z" fill="#CFCFD7"/>
<path opacity="0.3" d="M235.673 134.065C234.855 135.08 234.037 136.209 233.161 137.396C227.727 144.818 221.148 154.777 215.223 164.916C212.4 169.646 209.757 174.384 207.318 178.942C206.363 178.133 205.476 177.247 204.667 176.291C206.942 172.068 209.389 167.723 211.975 163.369C217.908 153.239 224.487 143.28 229.912 135.849C230.731 134.671 231.614 133.533 232.433 132.527L232.343 132.404C233.161 131.897 233.922 131.406 234.65 130.915C234.669 132.044 235.025 133.141 235.673 134.065Z" fill="black"/>
<path d="M259.159 164.941C254.333 170.017 248.825 174.399 242.793 177.96C237.023 181.282 231.475 183.263 226.385 183.877C226.688 183.107 226.999 182.33 227.294 181.553C231.603 180.414 235.734 178.685 239.568 176.413C245.599 172.85 251.107 168.469 255.935 163.394C253.995 160.68 252.211 157.858 250.591 154.941C247.039 148.652 244.188 141.991 242.089 135.08C242.31 134.974 242.539 134.843 242.784 134.712C243.365 134.376 243.913 133.987 244.421 133.55H244.47C244.666 134.52 244.922 135.477 245.239 136.414C247.343 143.41 250.222 150.148 253.824 156.504C255.441 159.415 257.222 162.232 259.159 164.941V164.941Z" fill="#CFCFD7"/>
<path opacity="0.2" d="M259.159 164.941C254.333 170.017 248.825 174.399 242.793 177.96C237.023 181.282 231.475 183.263 226.385 183.877C226.688 183.107 226.999 182.33 227.294 181.553C231.603 180.414 235.734 178.685 239.568 176.413C245.599 172.85 251.107 168.469 255.935 163.394" fill="black"/>
<path opacity="0.3" d="M253.832 156.479C250.23 150.124 247.351 143.385 245.248 136.389C244.931 135.452 244.674 134.495 244.478 133.525H244.429C243.921 133.963 243.373 134.352 242.793 134.687C242.547 134.818 242.318 134.949 242.097 135.056C244.196 141.967 247.047 148.627 250.599 154.916C252.219 157.833 254.003 160.655 255.943 163.369L259.216 164.916C257.263 162.208 255.465 159.391 253.832 156.479V156.479Z" fill="black"/>
<path d="M265.239 130.596C261.094 128.736 256.77 127.305 252.334 126.324C251.475 126.128 250.624 125.98 249.879 125.882C249.999 125.615 250.105 125.342 250.198 125.064C255.409 126.321 260.456 128.178 265.239 130.596V130.596Z" fill="#CFCFD7"/>
<path d="M288.389 98.9022C288.389 111.48 284.552 125.293 278.185 138.034C277.236 137.33 276.24 136.643 275.198 135.972C281.18 123.836 284.879 110.751 285.133 98.7221C286.229 97.8465 287.301 96.9709 288.357 96.1199C288.34 97.0609 288.389 97.9693 288.389 98.9022Z" fill="#CFCFD7"/>
<path opacity="0.3" d="M265.239 130.596C261.094 128.736 256.77 127.305 252.334 126.324C251.475 126.128 250.624 125.98 249.879 125.882C249.999 125.615 250.105 125.342 250.198 125.064C255.409 126.321 260.456 128.178 265.239 130.596V130.596Z" fill="black"/>
<path opacity="0.2" d="M288.389 98.9022C288.389 111.48 284.552 125.293 278.185 138.034C277.236 137.33 276.24 136.643 275.198 135.972C281.18 123.836 284.879 110.751 285.133 98.7221C286.229 97.8465 287.301 96.9709 288.357 96.1199C288.34 97.0609 288.389 97.9693 288.389 98.9022Z" fill="black"/>
<path d="M281.025 74.5408C277.751 78.125 274.273 82.0366 270.812 86.1527C263.838 94.4022 257.283 102.997 251.172 111.905C250.354 113.133 249.536 114.319 248.832 115.432C248.047 114.849 247.071 114.583 246.099 114.688C246.344 113.82 246.598 112.912 246.843 111.963L247.932 110.326C254.04 101.419 260.595 92.8263 267.571 84.5816C271.033 80.49 274.486 76.5375 277.776 72.9696C276.09 70.925 274.057 69.1937 271.769 67.8551C275.386 69.2363 278.577 71.5415 281.025 74.5408V74.5408Z" fill="#CFCFD7"/>
<path opacity="0.3" d="M281.025 74.5408C277.751 78.125 274.273 82.0366 270.812 86.1527C263.838 94.4022 257.283 102.997 251.172 111.905C250.354 113.133 249.536 114.319 248.832 115.432C248.047 114.849 247.071 114.583 246.099 114.688C246.344 113.82 246.598 112.912 246.843 111.963L247.932 110.326C254.04 101.419 260.595 92.8263 267.571 84.5816C271.033 80.49 274.486 76.5375 277.776 72.9696C276.09 70.925 274.057 69.1937 271.769 67.8551C275.386 69.2363 278.577 71.5415 281.025 74.5408V74.5408Z" fill="black"/>
<path d="M239.397 118.55C238.322 119.73 237.4 121.042 236.655 122.453C235.935 122.183 235.166 121.889 234.348 121.635C227.954 119.727 221.33 118.706 214.659 118.599C211.257 118.459 207.85 118.517 204.454 118.771C204.7 118.19 204.954 117.601 205.215 117.028C207.278 116.954 209.356 116.962 211.418 117.028C218.089 117.143 224.713 118.167 231.107 120.072C231.925 120.342 232.686 120.637 233.415 120.89C234.157 119.479 235.075 118.167 236.148 116.987C235.845 116.169 235.46 115.35 235.117 114.377C232.457 107 230.514 99.3846 229.315 91.6355C228.865 89.0414 228.497 86.3737 228.186 83.7305C229.119 82.8303 230.065 81.9548 231.025 81.1037C231.361 85.048 231.844 89.1969 232.555 93.1821C233.753 100.93 235.702 108.544 238.374 115.915C238.709 116.881 239.086 117.748 239.397 118.55Z" fill="#CFCFD7"/>
<path opacity="0.3" d="M236.148 117.012C235.075 118.192 234.157 119.503 233.415 120.915C232.686 120.637 231.917 120.342 231.107 120.097C224.713 118.194 218.089 117.173 211.418 117.061C209.356 116.971 207.278 116.962 205.215 117.061C204.954 117.634 204.7 118.223 204.454 118.804C207.85 118.549 211.257 118.492 214.659 118.632C221.338 118.72 227.974 119.725 234.38 121.619C235.199 121.889 235.968 122.183 236.688 122.437C237.433 121.025 238.354 119.714 239.429 118.534L236.148 117.012Z" fill="black"/>
<path opacity="0.2" d="M236.148 117.012C235.845 116.193 235.46 115.375 235.117 114.401C232.457 107.025 230.514 99.4091 229.315 91.66C228.865 89.066 228.497 86.3982 228.186 83.7551C229.119 82.8549 230.065 81.9793 231.025 81.1283C231.361 85.0726 231.844 89.2214 232.555 93.2067C233.753 100.955 235.702 108.569 238.374 115.94C238.709 116.881 239.086 117.748 239.397 118.55" fill="black"/>
<path d="M189.086 289.448H181.779L182.949 296.576C182.995 296.766 183.083 296.944 183.206 297.097C183.329 297.25 183.484 297.373 183.661 297.459C184.208 297.734 184.812 297.876 185.424 297.876C186.037 297.876 186.64 297.734 187.188 297.459C187.365 297.375 187.521 297.252 187.644 297.099C187.768 296.946 187.855 296.767 187.9 296.576L189.086 289.448Z" fill="#FAFAFA"/>
<path d="M185.437 291.379C187.461 291.379 189.103 290.43 189.103 289.26C189.103 288.089 187.461 287.14 185.437 287.14C183.412 287.14 181.771 288.089 181.771 289.26C181.771 290.43 183.412 291.379 185.437 291.379Z" fill="#FAFAFA"/>
<path d="M151.918 267.828H144.611L145.781 274.956C145.828 275.145 145.916 275.322 146.039 275.473C146.162 275.624 146.317 275.747 146.493 275.831C147.039 276.109 147.643 276.254 148.256 276.254C148.869 276.254 149.473 276.109 150.02 275.831C150.195 275.747 150.35 275.624 150.473 275.473C150.597 275.322 150.685 275.145 150.732 274.956V274.956L151.918 267.828Z" fill="#FAFAFA"/>
<path d="M145.666 266.134C144.234 266.952 144.234 268.303 145.666 269.129C146.47 269.537 147.359 269.75 148.26 269.75C149.162 269.75 150.051 269.537 150.854 269.129C152.295 268.311 152.295 266.961 150.854 266.134C150.051 265.726 149.162 265.513 148.26 265.513C147.359 265.513 146.47 265.726 145.666 266.134V266.134Z" fill="#FAFAFA"/>
<path d="M295.051 235.832H287.743L288.905 242.959C288.948 243.15 289.034 243.328 289.156 243.481C289.278 243.635 289.433 243.758 289.609 243.843C290.156 244.121 290.762 244.266 291.376 244.266C291.991 244.266 292.596 244.121 293.144 243.843C293.32 243.757 293.476 243.633 293.599 243.481C293.722 243.328 293.809 243.15 293.856 242.959L295.051 235.832Z" fill="#FAFAFA"/>
<path d="M288.799 234.146C287.367 234.964 287.367 236.314 288.799 237.141C289.602 237.549 290.491 237.762 291.393 237.762C292.294 237.762 293.183 237.549 293.987 237.141C295.419 236.323 295.419 234.972 293.987 234.146C293.183 233.738 292.294 233.525 291.393 233.525C290.491 233.525 289.602 233.738 288.799 234.146V234.146Z" fill="#FAFAFA"/>
<path d="M257.874 214.212H250.567L251.737 221.339C251.784 221.529 251.872 221.705 251.995 221.857C252.118 222.008 252.273 222.13 252.449 222.215C252.997 222.493 253.602 222.638 254.216 222.638C254.831 222.638 255.436 222.493 255.984 222.215C256.16 222.132 256.315 222.01 256.437 221.858C256.559 221.706 256.644 221.529 256.688 221.339V221.339L257.874 214.212Z" fill="#FAFAFA"/>
<path d="M251.631 212.518C250.198 213.336 250.198 214.686 251.631 215.521C252.434 215.929 253.323 216.142 254.225 216.142C255.126 216.142 256.015 215.929 256.819 215.521C258.251 214.703 258.251 213.352 256.819 212.518C256.015 212.11 255.126 211.897 254.225 211.897C253.323 211.897 252.434 212.11 251.631 212.518V212.518Z" fill="#FAFAFA"/>
<path d="M300.877 198.402V232.436C300.809 233.665 300.452 234.861 299.837 235.927C299.221 236.993 298.364 237.899 297.334 238.573L294.445 240.21H294.396C293.024 240.883 291.487 241.148 289.969 240.971L202.081 289.677C201.976 290.859 201.607 292.002 201.001 293.022C200.395 294.042 199.567 294.912 198.579 295.569V295.569L195.698 297.206C195.614 297.262 195.523 297.308 195.428 297.345C195.381 297.373 195.332 297.397 195.281 297.418H195.24C193.493 298.144 191.547 298.234 189.741 297.672C189.532 297.609 189.327 297.533 189.127 297.443L189.029 297.402C188.882 297.337 188.743 297.263 188.612 297.189L142.483 270.668C141.452 269.994 140.595 269.088 139.979 268.022C139.364 266.955 139.007 265.759 138.94 264.53V207.461C139.009 206.232 139.366 205.036 139.982 203.971C140.597 202.905 141.454 201.998 142.483 201.323L244.143 142.592C245.241 142.035 246.455 141.745 247.686 141.745C248.918 141.745 250.131 142.035 251.23 142.592L254.118 144.229C255.175 144.92 256.081 145.817 256.784 146.866C257.487 147.914 257.972 149.094 258.21 150.334L260.992 171.225L297.342 192.215C298.377 192.895 299.237 193.81 299.851 194.885C300.466 195.96 300.817 197.165 300.877 198.402V198.402Z" fill="#37474F"/>
<path d="M254.118 144.253L251.238 142.617C250.14 142.06 248.926 141.769 247.694 141.769C246.463 141.769 245.249 142.06 244.151 142.617L142.483 201.323C142.27 201.446 142.049 201.601 142.115 201.552C140.408 202.839 139.279 204.748 138.972 206.863C139.234 205.055 140.707 204.408 142.475 205.415L145.363 207.051C146.462 207.608 147.675 207.899 148.907 207.899C150.138 207.899 151.352 207.608 152.45 207.051L254.118 148.312C256.074 147.216 256.074 145.383 254.118 144.253Z" fill="#455A64"/>
<path d="M300.877 198.402V232.436C300.809 233.665 300.452 234.861 299.837 235.927C299.221 236.993 298.364 237.899 297.334 238.573L294.445 240.21H294.396C293.119 240.872 291.68 241.156 290.247 241.028C289.236 240.969 288.25 240.69 287.358 240.21L254.56 221.315C253.53 220.641 252.673 219.734 252.057 218.668C251.442 217.602 251.085 216.406 251.017 215.177V181.102C251.084 179.873 251.44 178.677 252.055 177.611C252.671 176.544 253.529 175.638 254.56 174.965L260.984 171.25L297.334 192.24C298.367 192.916 299.226 193.826 299.842 194.897C300.458 195.968 300.812 197.168 300.877 198.402V198.402Z" fill="#263238"/>
<path d="M260.984 171.25L254.56 174.965C252.612 176.086 252.612 177.927 254.56 179.057L287.358 197.993C288.389 198.666 289.247 199.572 289.862 200.639C290.478 201.705 290.834 202.901 290.902 204.13V238.172C290.902 240.422 292.497 241.339 294.445 240.218L297.334 238.581C298.363 237.906 299.22 237 299.835 235.934C300.45 234.868 300.807 233.673 300.877 232.444V198.402C300.807 197.173 300.45 195.978 299.835 194.912C299.22 193.846 298.363 192.939 297.334 192.264L260.984 171.25Z" fill="#455A64"/>
<path d="M290.902 204.13V238.172C290.902 240.422 292.497 241.339 294.445 240.218L297.334 238.581C298.363 237.906 299.22 237 299.835 235.934C300.45 234.868 300.807 233.673 300.877 232.444V198.402C300.839 197.16 300.484 195.949 299.846 194.883L289.871 200.611C290.511 201.676 290.866 202.888 290.902 204.13V204.13Z" fill="#37474F"/>
<path d="M289.429 241.028C289.089 241.733 288.654 242.388 288.136 242.976C287.132 243.895 286.012 244.679 284.805 245.308L206.369 290.626C205.82 290.905 205.213 291.05 204.598 291.05C203.982 291.05 203.375 290.905 202.826 290.626L191.304 283.973L168.252 270.668C167.181 270.102 166.285 269.256 165.66 268.219C165.035 267.182 164.704 265.994 164.704 264.784C164.704 263.573 165.035 262.385 165.66 261.349C166.285 260.312 167.181 259.465 168.252 258.9L181.345 251.347L191.32 245.619L246.655 213.598C247.754 213.044 248.968 212.755 250.198 212.755C251.429 212.755 252.643 213.044 253.742 213.598L286.54 232.542C287.551 233.176 288.398 234.039 289.014 235.061C289.63 236.083 289.996 237.236 290.083 238.426C290.056 239.33 289.832 240.218 289.429 241.028V241.028Z" fill="#263238"/>
<path d="M206.377 282.951L288.316 235.603C289.29 235.038 290.083 235.496 290.083 236.625V240.21C290.05 240.824 289.872 241.422 289.565 241.955C289.258 242.488 288.83 242.941 288.316 243.278L206.369 290.626C205.395 291.191 204.602 290.733 204.602 289.603V286.019C204.635 285.404 204.813 284.805 205.122 284.272C205.43 283.739 205.861 283.286 206.377 282.951V282.951Z" fill="#37474F"/>
<path d="M246.655 196.045L168.252 241.347C167.221 242.02 166.363 242.926 165.747 243.993C165.132 245.059 164.776 246.255 164.709 247.485V254.653C164.776 255.882 165.132 257.079 165.747 258.145C166.363 259.211 167.221 260.118 168.252 260.79L201.058 279.726C202.156 280.283 203.37 280.574 204.602 280.574C205.833 280.574 207.047 280.283 208.145 279.726L286.54 234.408C287.571 233.734 288.428 232.828 289.044 231.762C289.659 230.696 290.016 229.5 290.083 228.27V221.094C290.016 219.864 289.66 218.668 289.045 217.602C288.429 216.536 287.571 215.629 286.54 214.956L253.742 196.02C252.642 195.467 251.427 195.181 250.196 195.185C248.964 195.189 247.751 195.484 246.655 196.045V196.045Z" fill="#37474F"/>
<path d="M204.602 265.218V280.577C203.37 280.611 202.15 280.33 201.058 279.759L168.252 260.823C167.221 260.15 166.363 259.244 165.747 258.178C165.132 257.111 164.776 255.915 164.709 254.686V247.501C164.775 246.343 165.094 245.214 165.644 244.193C166.194 243.173 166.961 242.285 167.892 241.593C166.304 242.73 166.427 244.399 168.252 245.455L201.058 264.391C202.15 264.963 203.369 265.248 204.602 265.218Z" fill="#263238"/>
<path d="M208.145 264.375L286.54 219.072C288.496 217.943 288.496 216.11 286.54 214.981L253.742 196.045C252.644 195.488 251.43 195.198 250.198 195.198C248.967 195.198 247.753 195.488 246.655 196.045L168.252 241.347C166.296 242.476 166.296 244.309 168.252 245.439L201.058 264.375C202.156 264.932 203.37 265.222 204.602 265.222C205.833 265.222 207.047 264.932 208.145 264.375V264.375Z" fill="#455A64"/>
<path d="M238.316 196.479L211.132 197.223L210.829 167.682C210.78 165.898 211.083 164.122 211.721 162.455C212.359 160.788 213.319 159.263 214.546 157.967C215.773 156.672 217.244 155.63 218.874 154.903C220.504 154.176 222.261 153.777 224.045 153.73V153.73C225.829 153.681 227.606 153.984 229.273 154.621C230.941 155.259 232.466 156.219 233.763 157.446C235.059 158.673 236.101 160.144 236.829 161.774C237.557 163.404 237.957 165.161 238.005 166.945L238.316 196.479Z" fill="#263238"/>
<path d="M230.772 182.551C232.703 182.33 235.469 181.045 238.316 186.356C241.164 191.667 246.655 203.05 246.655 203.05L252.113 196.847L256.303 200.235C256.303 200.235 250.018 209.768 248.21 211.568C246.778 212.992 245.076 213.205 243.218 210.816C241.033 208.042 234.143 196.847 234.143 196.847L230.772 182.551Z" fill="#FFA8A7"/>
<path d="M269.985 198.95C270.068 198.846 270.12 198.72 270.135 198.588C270.15 198.456 270.127 198.323 270.07 198.202C270.013 198.082 269.924 197.981 269.812 197.909C269.7 197.837 269.57 197.798 269.437 197.796C269.342 197.796 269.248 197.816 269.161 197.854C269.073 197.892 268.995 197.948 268.93 198.017C268.93 197.943 268.93 197.87 268.93 197.796C268.93 197.514 268.874 197.234 268.766 196.974C268.658 196.713 268.499 196.476 268.299 196.277C268.099 196.078 267.862 195.92 267.601 195.813C267.34 195.706 267.06 195.651 266.778 195.652C266.407 195.65 266.043 195.746 265.722 195.93C265.783 195.788 265.807 195.632 265.793 195.478C265.779 195.324 265.728 195.175 265.643 195.046C265.558 194.916 265.442 194.81 265.306 194.736C265.17 194.662 265.018 194.622 264.863 194.621C264.693 194.621 264.526 194.666 264.38 194.752C264.388 194.64 264.388 194.528 264.38 194.417C264.359 193.883 264.165 193.37 263.827 192.956C263.489 192.543 263.024 192.251 262.505 192.125C261.986 191.999 261.44 192.046 260.949 192.259C260.459 192.471 260.052 192.838 259.789 193.304C259.737 193.137 259.634 192.991 259.493 192.887C259.352 192.784 259.182 192.728 259.008 192.728C258.833 192.728 258.663 192.784 258.522 192.887C258.382 192.991 258.278 193.137 258.226 193.304C258.008 192.951 257.68 192.68 257.293 192.53C256.906 192.381 256.481 192.361 256.083 192.475C255.684 192.589 255.333 192.83 255.083 193.161C254.834 193.492 254.699 193.895 254.699 194.31C254.691 194.405 254.691 194.501 254.699 194.597C254.596 194.511 254.47 194.456 254.337 194.439C254.204 194.423 254.068 194.444 253.947 194.502C253.826 194.56 253.723 194.651 253.652 194.765C253.581 194.879 253.544 195.01 253.545 195.145V195.145C253.298 194.998 253.015 194.919 252.727 194.916C252.318 194.918 251.924 195.067 251.615 195.336C251.307 195.605 251.107 195.976 251.049 196.38C250.931 196.338 250.807 196.315 250.681 196.315C250.542 196.314 250.405 196.34 250.276 196.393C250.147 196.446 250.031 196.524 249.932 196.622C249.834 196.72 249.756 196.837 249.704 196.965C249.651 197.094 249.625 197.232 249.626 197.371C249.627 197.499 249.649 197.626 249.691 197.747C249.134 197.941 248.666 198.329 248.372 198.839C248.078 199.35 247.977 199.95 248.088 200.528C248.199 201.107 248.515 201.627 248.978 201.992C249.44 202.357 250.019 202.544 250.608 202.518L259.486 208.5L268.987 202.379C269.389 202.378 269.78 202.247 270.1 202.005C270.421 201.762 270.654 201.422 270.764 201.036C270.874 200.649 270.855 200.237 270.71 199.862C270.565 199.488 270.302 199.17 269.961 198.958L269.985 198.95Z" fill="#FFF9C5"/>
<path d="M261.794 205.865L261.483 224.334L263.422 223.221L264.053 204.555L261.794 205.865Z" fill="#FAFAFA"/>
<path d="M264.053 204.555L263.423 223.221L265.346 222.108L266.319 203.254L264.053 204.555Z" fill="#F8392E"/>
<path d="M260.149 206.814C259.964 206.916 259.755 206.966 259.544 206.961V225.251C259.754 225.254 259.962 225.207 260.149 225.112L261.483 224.334L261.794 205.865L260.149 206.814Z" fill="#F8392E"/>
<path d="M267.26 221.004L268.562 220.251C268.74 220.135 268.891 219.982 269.006 219.803C269.12 219.624 269.194 219.422 269.224 219.212L270.861 200.628L268.586 201.945L267.26 221.004Z" fill="#F8392E"/>
<path d="M266.319 203.254L265.346 222.108L267.26 221.004L268.586 201.945L266.319 203.254Z" fill="#FAFAFA"/>
<path d="M257.293 205.865L257.604 224.334L255.673 223.221L255.043 204.555L257.293 205.865Z" fill="#F8392E"/>
<path d="M255.043 204.555L255.673 223.221L253.75 222.108L252.776 203.254L255.043 204.555Z" fill="#E0E0E0"/>
<path d="M258.93 206.814C259.113 206.914 259.319 206.965 259.527 206.961V225.251C259.32 225.253 259.115 225.206 258.93 225.112L257.588 224.334L257.293 205.865L258.93 206.814Z" fill="#E0E0E0"/>
<path d="M251.835 221.004L250.534 220.251C250.355 220.135 250.202 219.983 250.086 219.804C249.97 219.625 249.894 219.423 249.863 219.212L248.226 200.628L250.509 201.945L251.835 221.004Z" fill="#E0E0E0"/>
<path d="M252.776 203.254L253.75 222.108L251.835 221.004L250.509 201.945L252.776 203.254Z" fill="#F8392E"/>
<path opacity="0.1" d="M257.293 205.865L257.604 224.334L255.673 223.221L255.043 204.555L257.293 205.865Z" fill="black"/>
<path opacity="0.1" d="M252.776 203.254L253.75 222.108L251.835 221.004L250.509 201.945L252.776 203.254Z" fill="black"/>
<path d="M259.069 202.706C258.959 202.857 258.815 202.98 258.649 203.065C258.482 203.151 258.298 203.196 258.112 203.197C257.823 203.204 257.541 203.104 257.322 202.917C257.102 202.729 256.959 202.466 256.922 202.179C256.884 201.893 256.954 201.602 257.118 201.364C257.282 201.126 257.528 200.957 257.809 200.889C257.658 201.087 257.578 201.329 257.58 201.577C257.582 201.888 257.707 202.186 257.928 202.405C258.148 202.624 258.447 202.747 258.758 202.747C258.863 202.75 258.968 202.736 259.069 202.706V202.706Z" fill="#F4E364"/>
<path d="M260.444 202.788C260.457 202.909 260.44 203.031 260.396 203.144C260.352 203.257 260.282 203.358 260.191 203.439C260.1 203.519 259.991 203.577 259.873 203.606C259.755 203.636 259.632 203.637 259.514 203.609C259.395 203.582 259.285 203.526 259.193 203.447C259.101 203.368 259.028 203.269 258.983 203.156C258.937 203.044 258.918 202.922 258.929 202.801C258.94 202.68 258.979 202.563 259.045 202.461C259.06 202.619 259.126 202.768 259.233 202.886C259.369 203.036 259.559 203.126 259.761 203.137C259.963 203.147 260.162 203.078 260.313 202.943C260.365 202.9 260.41 202.847 260.444 202.788V202.788Z" fill="#F4E364"/>
<path d="M255.763 197.223C255.897 197.431 255.962 197.676 255.949 197.923C255.936 198.169 255.846 198.406 255.691 198.599C255.536 198.791 255.325 198.931 255.087 198.997C254.848 199.063 254.596 199.052 254.364 198.966C254.122 198.876 253.918 198.708 253.781 198.489C253.645 198.27 253.585 198.012 253.611 197.755C253.746 197.962 253.944 198.12 254.175 198.205C254.319 198.261 254.473 198.287 254.627 198.282C254.781 198.278 254.933 198.244 255.074 198.18C255.214 198.117 255.341 198.027 255.447 197.915C255.552 197.802 255.635 197.67 255.689 197.526C255.725 197.428 255.75 197.327 255.763 197.223V197.223Z" fill="#F4E364"/>
<path d="M253.938 198.336C253.995 198.443 254.024 198.563 254.024 198.684C254.024 198.805 253.995 198.925 253.938 199.032C253.894 199.122 253.832 199.202 253.757 199.268C253.681 199.334 253.593 199.384 253.498 199.416C253.403 199.448 253.303 199.461 253.203 199.454C253.103 199.447 253.005 199.42 252.915 199.376C252.767 199.303 252.646 199.184 252.572 199.036C252.498 198.888 252.475 198.72 252.506 198.557C252.57 198.683 252.667 198.788 252.787 198.862C252.907 198.936 253.045 198.975 253.185 198.975C253.326 198.975 253.464 198.936 253.584 198.862C253.704 198.788 253.801 198.683 253.865 198.557C253.903 198.489 253.928 198.414 253.938 198.336V198.336Z" fill="#F4E364"/>
<path d="M266.107 200.038C266.118 200.227 266.084 200.415 266.007 200.587C265.931 200.759 265.814 200.911 265.667 201.028C265.52 201.146 265.347 201.227 265.162 201.264C264.977 201.301 264.786 201.293 264.605 201.241C264.424 201.189 264.258 201.094 264.121 200.965C263.984 200.835 263.88 200.675 263.818 200.497C263.756 200.319 263.737 200.129 263.764 199.942C263.79 199.756 263.861 199.578 263.971 199.425C263.989 199.673 264.083 199.91 264.241 200.104C264.438 200.34 264.721 200.488 265.027 200.517C265.334 200.546 265.639 200.454 265.877 200.259C265.964 200.197 266.041 200.123 266.107 200.038V200.038Z" fill="#F4E364"/>
<path d="M267.375 199.498C267.388 199.619 267.372 199.741 267.328 199.854C267.284 199.968 267.213 200.069 267.122 200.149C267.031 200.23 266.922 200.287 266.804 200.317C266.686 200.346 266.563 200.347 266.445 200.32C266.327 200.292 266.217 200.237 266.124 200.158C266.032 200.079 265.96 199.979 265.914 199.867C265.868 199.754 265.849 199.632 265.86 199.511C265.871 199.39 265.911 199.274 265.976 199.171C265.991 199.311 266.044 199.444 266.13 199.555C266.215 199.666 266.33 199.752 266.462 199.802C266.593 199.852 266.736 199.864 266.874 199.838C267.012 199.812 267.14 199.748 267.244 199.654C267.297 199.61 267.341 199.558 267.375 199.498V199.498Z" fill="#F4E364"/>
<path d="M264.061 198.205C264.208 198.275 264.329 198.391 264.406 198.534C264.483 198.678 264.511 198.843 264.488 199.004C264.464 199.166 264.389 199.315 264.274 199.43C264.158 199.546 264.009 199.621 263.848 199.646C263.683 199.673 263.513 199.646 263.365 199.568C263.217 199.489 263.099 199.364 263.03 199.212C263.174 199.284 263.338 199.307 263.496 199.277C263.595 199.261 263.689 199.226 263.774 199.173C263.859 199.121 263.933 199.051 263.991 198.97C264.049 198.888 264.09 198.796 264.112 198.699C264.133 198.601 264.136 198.5 264.118 198.402C264.113 198.333 264.093 198.266 264.061 198.205V198.205Z" fill="#F4E364"/>
<path d="M251.835 195.186C251.835 195.767 252.596 196.569 253.038 197.011C253.48 197.452 254.871 198.173 255.247 198.688C255.624 199.204 256.164 199.171 256.319 198.336C256.475 197.502 255.076 196.029 255.043 195.587C255.01 195.145 256.843 195.186 258.005 195.628C259.167 196.069 260.411 198.148 260.861 199.171C261.311 200.194 264.134 200.112 264.053 197.174C263.971 194.236 262.514 192.845 260.902 192.092C259.117 191.338 257.142 191.152 255.247 191.561C253.439 191.97 251.459 193.443 250.509 196.323C250.698 196.286 250.894 196.303 251.074 196.372C251.107 196.131 251.192 195.9 251.324 195.695C251.455 195.49 251.63 195.316 251.835 195.186V195.186Z" fill="#FFA8A7"/>
<path d="M198.513 191.135C201.026 190.219 214.945 184.253 219.659 184.343L220.166 195.922L205.191 202.722L198.513 191.135Z" fill="#E0E0E0"/>
<path d="M256.377 257.19C255.902 257.689 255.362 258.262 255.419 258.892C255.598 260.224 256.191 261.466 257.113 262.443C258.423 263.859 259.29 266.535 259.568 268.409C259.846 270.283 259.977 274.956 262.31 276.772C264.642 278.589 270.296 279.538 270.296 276.126C270.296 272.713 263.545 259.563 263.545 259.563L256.377 257.19Z" fill="#263238"/>
<path d="M259.511 259.383C260.454 261.778 261.217 264.239 261.794 266.748C262.367 269.489 263.177 271.42 264.576 272.157C265.976 272.893 268.062 272.762 267.277 270.897C266.491 269.031 263.504 259.579 263.504 259.579L259.511 259.383Z" fill="#F28F8F"/>
<path d="M241.442 212.698C241.442 212.698 252.555 217.78 257.956 220.685C263.357 223.59 268.504 226.413 269.576 228.761C270.714 231.216 270.395 237.125 269.83 242.787C269.265 248.45 267.997 258.622 267.997 258.622L252.171 234.891L236.271 224.383L241.442 212.698Z" fill="#329CDE"/>
<path opacity="0.1" d="M261.974 237.681C260.411 234.048 257.007 231.634 253.791 229.662C251.254 228.09 244.928 224.408 242.449 222.968C242.945 221.726 243.222 220.408 243.267 219.073C243.267 219.073 242.49 220.856 241.573 222.469L240.911 223.557L257.195 235.709L268.382 255.684C268.382 255.684 263.537 241.274 261.974 237.681Z" fill="black"/>
<path d="M269.347 276.379C268.889 276.682 268.954 277.812 268.995 278.646C269.036 279.481 268.447 280.561 269.65 281.838C270.853 283.114 272.882 283.229 274.56 284.98C276.237 286.731 278.725 289.947 283.242 290.185C287.759 290.422 290.861 288.441 291.466 287.009C292.072 285.577 291.155 284.464 288.103 283.311C284.83 282.083 283.946 281.723 283.946 281.723L269.347 276.379Z" fill="#263238"/>
<path d="M272.62 266.65C272.62 266.65 275.665 272.149 277.375 274.628C279.273 277.199 281.556 279.462 284.142 281.338C284.715 281.772 285.967 282.55 286.434 282.901C286.546 282.963 286.642 283.05 286.714 283.155C286.786 283.26 286.833 283.38 286.851 283.507C286.868 283.633 286.856 283.762 286.815 283.883C286.774 284.004 286.705 284.113 286.614 284.203C285.861 285.299 281.908 286.338 279.322 285.127C276.737 283.916 273.872 281.175 272.26 280.095C271.442 279.563 270.689 279.047 270.125 278.663C269.857 278.485 269.641 278.24 269.498 277.953C269.354 277.666 269.288 277.346 269.306 277.026C269.306 276.838 269.306 276.625 269.306 276.371C269.306 275.021 266.548 270.07 266.548 270.07L272.62 266.65Z" fill="#FFA8A7"/>
<path d="M216.852 218.974C216.901 223.491 217.122 226.012 219.495 230.136C221.868 234.26 227.678 236.863 234.462 239.138C240.109 241.036 248.374 243.745 250.059 244.097C251.745 244.449 252.048 245.332 252.432 248.254C252.817 251.175 254.773 255.668 259.184 260.897C262.388 264.777 265.379 268.828 268.144 273.033C268.144 273.033 272.751 273.033 274.511 269.964C274.511 269.964 261.688 239.686 259.634 236.216C257.58 232.747 240.927 223.516 240.927 223.516C240.927 223.516 241.205 217.256 241.426 212.698L216.852 218.974Z" fill="#329CDE"/>
<path d="M219.651 184.343L215.641 186.356C215.641 186.356 218.407 189.13 217.646 195.947C217.114 200.775 216.009 201.192 213.554 202.551C216.827 209.965 216.827 220.881 216.827 220.881C216.827 220.881 222.597 223.974 233.079 220.996C242.293 218.385 241.377 212.698 241.377 212.698L237.416 209.645L236.524 202.428C236.524 202.428 239.642 199.294 238.292 193.713C236.942 188.132 230.706 182.551 230.706 182.551H228.251L219.651 184.343Z" fill="#FAFAFA"/>
<path d="M239.961 217.051C235.272 218.802 228.505 218.524 225.313 217.051C220.829 214.981 218.955 209.294 219.323 205.668C219.929 199.752 219.43 195.75 218.014 192.084H217.703C217.82 193.367 217.804 194.659 217.654 195.939C217.122 200.767 216.017 201.184 213.562 202.542C216.631 209.776 216.836 220.873 216.836 220.873C216.836 220.873 222.605 223.966 233.087 220.987C236.066 220.169 238.464 218.835 239.904 217.043L239.961 217.051Z" fill="#F0F0F0"/>
<path d="M232.588 159.589C234.045 160.407 235.919 163.959 235.943 171.528C235.943 177.952 233.938 179.589 232.907 180.071C231.876 180.554 229.855 180.333 227.883 180.071L227.924 182.731C227.924 182.731 231.451 186.593 231.328 188.361C231.205 190.129 226.811 191.037 224.233 189.4C222.368 188.044 220.745 186.384 219.43 184.49L219.233 175.595C219.233 175.595 218.112 176.749 216.115 175.096C214.479 173.729 213.857 171.364 215.076 170.055C215.393 169.743 215.78 169.51 216.205 169.377C216.63 169.243 217.081 169.213 217.52 169.288C217.959 169.363 218.373 169.542 218.73 169.809C219.086 170.076 219.374 170.424 219.569 170.824C222.137 170.65 224.62 169.837 226.795 168.459C228.389 167.54 229.745 166.257 230.751 164.716C231.758 163.175 232.387 161.419 232.588 159.589V159.589Z" fill="#FFA8A7"/>
<path d="M228.742 170.112C228.753 170.22 228.743 170.329 228.712 170.432C228.681 170.536 228.63 170.632 228.562 170.716C228.493 170.8 228.409 170.869 228.313 170.92C228.218 170.971 228.113 171.002 228.006 171.013C227.897 171.02 227.788 171.006 227.684 170.971C227.581 170.936 227.486 170.881 227.404 170.808C227.323 170.736 227.256 170.648 227.209 170.549C227.162 170.451 227.135 170.344 227.13 170.235C227.122 170.128 227.135 170.02 227.169 169.917C227.202 169.815 227.256 169.72 227.326 169.639C227.468 169.474 227.67 169.372 227.887 169.355C228.104 169.339 228.319 169.41 228.484 169.552C228.649 169.694 228.75 169.895 228.767 170.112H228.742Z" fill="#263238"/>
<path d="M229.102 175.546L230.992 176.094C230.962 176.22 230.907 176.338 230.83 176.442C230.753 176.546 230.656 176.633 230.544 176.699C230.433 176.765 230.309 176.807 230.181 176.824C230.053 176.841 229.922 176.832 229.798 176.798C229.543 176.718 229.329 176.544 229.2 176.311C229.07 176.078 229.035 175.804 229.102 175.546V175.546Z" fill="#F28F8F"/>
<path d="M235.289 167.453L233.652 166.373C233.716 166.26 233.802 166.162 233.906 166.084C234.009 166.006 234.127 165.95 234.253 165.92C234.379 165.89 234.51 165.887 234.638 165.91C234.765 165.933 234.886 165.982 234.994 166.053C235.211 166.206 235.363 166.435 235.417 166.695C235.472 166.955 235.426 167.226 235.289 167.453V167.453Z" fill="#263238"/>
<path d="M234.961 169.359C234.969 169.521 234.929 169.681 234.846 169.819C234.763 169.958 234.641 170.068 234.496 170.138C234.35 170.207 234.187 170.232 234.027 170.209C233.867 170.186 233.718 170.116 233.598 170.008C233.478 169.901 233.392 169.76 233.352 169.603C233.311 169.447 233.318 169.282 233.371 169.13C233.424 168.978 233.521 168.844 233.65 168.747C233.778 168.649 233.933 168.592 234.094 168.582C234.202 168.575 234.31 168.59 234.413 168.626C234.515 168.662 234.609 168.717 234.69 168.789C234.771 168.862 234.836 168.949 234.883 169.047C234.929 169.145 234.956 169.251 234.961 169.359Z" fill="#263238"/>
<path d="M231.312 168.599L231.41 173.852L233.938 172.993L231.312 168.599Z" fill="#F28F8F"/>
<path d="M227.883 180.063C225.821 179.85 221.541 178.746 220.829 177.084C221.12 177.926 221.659 178.659 222.376 179.188C223.677 180.235 227.924 181.348 227.924 181.348L227.883 180.063Z" fill="#F28F8F"/>
<path d="M227.924 182.723V181.348C227.924 181.348 231.263 180.751 233.022 181.348C234.63 181.925 236.121 182.787 237.424 183.893C238.392 185.072 238.949 186.534 239.012 188.058C238.971 189.924 237.179 190.57 234.765 189.057C233.464 188.238 232.965 186.667 232.105 185.857C230.499 185.13 229.072 184.06 227.924 182.723V182.723Z" fill="#B16668"/>
<path d="M215.649 186.356C212.007 188.034 209.806 189.106 208.62 194.539C207.433 199.973 202.654 225.922 202.654 225.922L208.317 227.73C208.317 227.73 212.482 214.858 213.66 210.546C214.839 206.233 217.146 199.76 217.654 195.939C218.161 192.117 218.57 189.482 215.649 186.356Z" fill="#FFA8A7"/>
<path d="M214.307 296.093H220.477V285.536H214.307V296.093Z" fill="#B16668"/>
<path d="M230.952 287.451L237.114 287.664L237.424 276.494L231.263 276.281L230.952 287.451Z" fill="#B16668"/>
<path d="M220.469 293.327V292.23C221.115 292.517 224.029 298.679 226.688 301.109C228.799 303.032 232.523 305.675 232.416 307.5C232.294 309.865 228.93 310.913 226.025 310.225C223.759 309.693 220.518 308.318 218.963 306.641C217.408 304.963 216.909 302.762 216.091 301.666C215.273 300.569 213.415 299.341 212.973 298.065C212.736 297.369 213.022 295.839 213.358 294.554C213.693 293.27 214.004 292.058 214.413 292.173V292.901C215.365 293.654 216.547 294.056 217.76 294.039C218.767 294.063 220.469 294.072 220.469 293.327Z" fill="#263238"/>
<path d="M237.179 285.766C237.498 285.766 237.76 286.224 238.464 286.993C239.715 288.044 241.109 288.912 242.604 289.571C244.912 290.725 250.959 292.279 252.989 293.188C254.257 293.761 253.938 295.733 252.171 296.837C250.829 297.656 246.557 298.474 242.76 297.615C240.681 297.148 237.531 295.716 235.992 295.471C234.299 295.209 231.189 294.882 229.929 294.014C228.668 293.147 229.176 291.289 229.528 289.694C229.92 287.959 230.477 285.291 231.05 285.414V285.962C231.794 287.083 235.567 287.541 237.195 286.715L237.179 285.766Z" fill="#263238"/>
<path d="M183.227 236.503C184.913 244.26 190.166 248.777 199.651 252.558C207.188 255.537 214.315 258.065 214.315 258.065C213.405 261.989 212.933 266.002 212.908 270.029C212.85 276.044 213.996 289.366 213.996 289.366C213.996 289.366 218.088 291.093 220.903 289.301C220.903 289.301 222.425 278.973 223.587 271.445C225.395 259.702 226.672 253.786 226.14 251.576C225.813 250.193 220.919 246.748 216.615 243.802L229.421 249.678C229.167 252.261 229.057 254.856 229.094 257.452C229.307 265.635 230.952 281.698 230.952 281.698C230.952 281.698 235.436 283.703 237.662 281.969C237.662 281.969 242.842 243.712 241.917 240.938C240.837 237.665 237.326 236.413 220.084 229.072C216.107 227.37 210.158 225.406 210.158 225.406L183.227 236.503Z" fill="#329CDE"/>
<path opacity="0.1" d="M183.227 236.503C184.913 244.26 190.166 248.777 199.651 252.558C207.188 255.537 214.315 258.065 214.315 258.065C213.405 261.989 212.933 266.002 212.908 270.029C212.85 276.044 213.996 289.366 213.996 289.366C213.996 289.366 218.088 291.093 220.903 289.301C220.903 289.301 222.425 278.973 223.587 271.445C225.395 259.702 226.672 253.786 226.14 251.576C225.813 250.193 220.919 246.748 216.615 243.802L229.421 249.678C229.167 252.261 229.057 254.856 229.094 257.452C229.307 265.635 230.952 281.698 230.952 281.698C230.952 281.698 235.436 283.703 237.662 281.969C237.662 281.969 242.842 243.712 241.917 240.938C240.837 237.665 237.326 236.413 220.084 229.072C216.107 227.37 210.158 225.406 210.158 225.406L183.227 236.503Z" fill="black"/>
<path d="M183.775 193.893C181.937 196.887 180.942 200.322 180.895 203.835L179.757 215.881C180.306 225.644 180.821 229.596 182.515 236.585C186.893 241.347 205.297 235.832 210.158 225.439C210.158 225.439 207.818 211.822 207.368 202.526C207.048 195.93 204.831 191.258 198.513 191.119L190.412 192.232L183.775 193.893Z" fill="#F5F5F5"/>
<path d="M207.501 179.352C210.966 175.888 210.966 170.271 207.501 166.807C204.037 163.343 198.421 163.343 194.956 166.807C191.492 170.271 191.492 175.888 194.956 179.352C198.421 182.816 204.037 182.816 207.501 179.352Z" fill="#263238"/>
<path d="M186.721 178.377C186.721 178.377 188.08 184.76 188.628 185.816C188.984 186.454 189.569 186.934 190.265 187.158L190.175 182.665L186.721 178.377Z" fill="#263238"/>
<path d="M188.432 169.22C187.955 169.164 187.473 169.218 187.02 169.377C186.568 169.536 186.158 169.796 185.821 170.137C184.7 171.283 185.33 174.867 186.721 178.377L189.283 178.664L188.432 169.22Z" fill="#263238"/>
<path d="M190.052 178.672C189.536 178.975 188.808 177.993 188.17 177.33C187.531 176.667 185.469 175.759 184.438 177.936C183.407 180.112 185.347 183.075 186.975 183.582C189.782 184.466 190.207 182.665 190.207 182.665L190.42 192.788C192.875 195.489 201.107 194.842 199.553 192.518V189.441C200.802 189.64 202.07 189.706 203.333 189.638C205.395 189.318 206.697 187.69 207.318 185.456C208.325 181.863 208.71 178.967 207.859 171.913C206.917 164.18 197.924 164.098 193.063 167.158C188.203 170.219 190.052 178.672 190.052 178.672Z" fill="#B16668"/>
<path d="M190.052 179.531C189.798 179.531 188.816 177.895 188.17 177.33C187.286 176.512 188.432 169.22 188.432 169.22C188.196 168.592 188.147 167.909 188.293 167.254C188.438 166.598 188.77 165.999 189.25 165.53C190.469 164.188 192.523 164.04 195.96 163.5C197.777 163.214 200.535 162.682 202.343 162.363C204.512 161.962 206.304 161.545 207.834 162.862C208.435 163.383 208.859 164.078 209.05 164.85C209.24 165.622 209.187 166.434 208.898 167.175C208.454 168.092 207.675 168.804 206.721 169.163C206.721 169.163 205.78 169.981 202.49 170.399C199.456 170.628 196.406 170.571 193.382 170.227C192.433 170.096 192.229 171.045 191.746 173.549C191.296 175.759 190.919 179.515 190.052 179.531Z" fill="#263238"/>
<path d="M188.432 169.761L185.33 168.124C185.426 167.912 185.565 167.722 185.736 167.565C185.908 167.409 186.11 167.288 186.329 167.212C186.549 167.135 186.782 167.104 187.014 167.12C187.246 167.136 187.472 167.199 187.679 167.306C188.098 167.538 188.41 167.923 188.551 168.381C188.691 168.839 188.648 169.333 188.432 169.761V169.761Z" fill="#263238"/>
<path d="M199.544 189.441C199.544 189.441 194.937 188.508 193.325 187.657C192.38 187.162 191.605 186.396 191.099 185.456C191.342 186.396 191.771 187.278 192.36 188.05C193.538 189.556 199.544 190.669 199.544 190.669V189.441Z" fill="#9A4A4D"/>
<path d="M198.432 177.518C198.423 177.701 198.361 177.877 198.252 178.025C198.143 178.172 197.993 178.284 197.821 178.346C197.649 178.408 197.462 178.418 197.284 178.373C197.106 178.329 196.946 178.233 196.823 178.097C196.7 177.962 196.62 177.792 196.593 177.611C196.566 177.43 196.594 177.245 196.672 177.08C196.751 176.914 196.877 176.776 197.034 176.682C197.191 176.588 197.373 176.543 197.556 176.553C197.798 176.571 198.023 176.682 198.186 176.861C198.348 177.041 198.436 177.276 198.432 177.518V177.518Z" fill="#263238"/>
<path d="M196.95 173.697L194.978 174.785C194.838 174.514 194.808 174.2 194.893 173.908C194.978 173.615 195.173 173.367 195.436 173.214C195.567 173.142 195.71 173.098 195.858 173.084C196.006 173.07 196.155 173.085 196.297 173.131C196.439 173.176 196.569 173.249 196.682 173.347C196.794 173.444 196.885 173.563 196.95 173.697V173.697Z" fill="#263238"/>
<path d="M199.127 183.893L201.23 184.711C201.184 184.853 201.11 184.983 201.013 185.095C200.915 185.207 200.796 185.299 200.662 185.364C200.528 185.429 200.383 185.466 200.235 185.473C200.086 185.481 199.938 185.458 199.798 185.407C199.655 185.352 199.523 185.269 199.412 185.162C199.301 185.056 199.211 184.93 199.149 184.789C199.086 184.648 199.052 184.497 199.049 184.343C199.045 184.189 199.072 184.036 199.127 183.893V183.893Z" fill="#9A4A4D"/>
<path d="M206.901 174.507L205.101 173.124C205.185 173.003 205.294 172.9 205.419 172.821C205.544 172.743 205.684 172.691 205.83 172.668C205.976 172.645 206.125 172.652 206.268 172.688C206.412 172.724 206.546 172.789 206.664 172.878C206.905 173.068 207.063 173.342 207.108 173.645C207.152 173.948 207.078 174.257 206.901 174.507V174.507Z" fill="#263238"/>
<path d="M206.116 177.256C206.108 177.437 206.047 177.612 205.94 177.758C205.834 177.905 205.687 178.017 205.517 178.081C205.348 178.145 205.163 178.157 204.987 178.117C204.81 178.077 204.649 177.986 204.524 177.855C204.399 177.724 204.315 177.559 204.282 177.381C204.25 177.203 204.27 177.019 204.341 176.853C204.412 176.686 204.531 176.544 204.682 176.444C204.833 176.344 205.01 176.291 205.191 176.291C205.44 176.299 205.677 176.405 205.85 176.585C206.022 176.766 206.118 177.007 206.116 177.256V177.256Z" fill="#263238"/>
<path d="M201.549 176.512L201.656 182.109L204.97 181.381L201.549 176.512Z" fill="#9A4A4D"/>
<path opacity="0.15" d="M216.615 243.802L209.209 239.833C209.209 239.833 212.228 237.657 212.629 234.825C212.629 234.825 212.809 238.303 211.5 239.833L227.564 248.835L216.615 243.802Z" fill="black"/>
<path d="M192.122 295.234V261.2C192.054 259.97 191.697 258.775 191.082 257.709C190.467 256.643 189.609 255.736 188.579 255.062L152.229 234.08L149.447 213.181C149.209 211.942 148.724 210.764 148.021 209.716C147.318 208.669 146.411 207.774 145.355 207.084L142.475 205.447C140.519 204.326 138.931 205.243 138.931 207.493V264.563C138.999 265.792 139.354 266.989 139.97 268.055C140.586 269.121 141.444 270.027 142.475 270.7L188.554 297.279C190.527 298.409 192.122 297.484 192.122 295.234Z" fill="#263238"/>
<path d="M202.089 255.439V289.481C202.093 289.557 202.093 289.634 202.089 289.71C201.985 290.892 201.616 292.035 201.009 293.055C200.403 294.075 199.575 294.945 198.587 295.602L195.707 297.238C195.622 297.294 195.531 297.341 195.436 297.378C195.389 297.405 195.34 297.43 195.289 297.451H195.248C195.155 297.493 195.059 297.528 194.962 297.558C193.286 298.171 191.457 298.223 189.749 297.705C189.54 297.642 189.335 297.566 189.135 297.476C190.837 298.18 192.155 297.222 192.163 295.184V261.2C192.095 259.971 191.738 258.775 191.123 257.709C190.507 256.643 189.65 255.736 188.62 255.062L182.188 251.347L152.27 234.081L158.702 230.365C159.801 229.813 161.015 229.525 162.245 229.525C163.476 229.525 164.689 229.813 165.789 230.365L192.163 245.594L198.587 249.301C199.61 249.979 200.46 250.888 201.068 251.953C201.676 253.019 202.026 254.213 202.089 255.439Z" fill="#455A64"/>
<path d="M192.122 261.2V295.234C192.122 297.271 190.797 298.229 189.094 297.525C189.294 297.615 189.499 297.691 189.708 297.754C191.416 298.272 193.245 298.22 194.921 297.607C195.019 297.577 195.114 297.542 195.207 297.5H195.248C195.299 297.479 195.348 297.454 195.396 297.427C195.49 297.39 195.581 297.343 195.666 297.288L198.546 295.651C199.534 294.994 200.362 294.124 200.968 293.104C201.575 292.084 201.944 290.941 202.048 289.759C202.053 289.683 202.053 289.606 202.048 289.53V255.439C202.006 254.207 201.648 253.007 201.009 251.953L191.042 257.681C191.696 258.743 192.068 259.954 192.122 261.2V261.2Z" fill="#37474F"/>
<path d="M181.108 196.847C178.53 197.763 171.108 213.5 169.504 216.577C167.9 219.653 163.661 229.154 164.488 232.984C165.314 236.814 181.607 244.899 183.227 246.511C185.167 248.458 185.682 249.399 188.587 249.702C190.96 249.956 191.648 251.813 193.923 252.795C196.197 253.777 200.158 252.067 198.399 248.827C196.328 244.997 194.626 244.154 192.736 243.377C190.109 242.296 188.522 242.206 186.721 241.093C184.921 239.981 174.389 229.989 174.389 229.989L179.757 219.523C179.757 219.523 183.031 211.732 183.301 205.767C183.571 199.801 181.108 196.847 181.108 196.847Z" fill="#B16668"/>
<path d="M183.775 193.893C178.865 195.685 176.329 200.611 173.546 206.168C170.764 211.724 168.244 217.714 168.244 217.714C170.99 220.541 174.508 222.496 178.358 223.336L183.644 213.287C183.644 213.287 189.283 202.281 183.775 193.893Z" fill="#E0E0E0"/>
</g>
<defs>
<clipPath id="clip0">
<rect width="328.771" height="344.588" fill="white"/>
</clipPath>
</defs>
</svg>
