<svg width="200" height="200" viewBox="0 0 200 200" fill="none" xmlns="http://www.w3.org/2000/svg">
<rect width="200" height="200" fill="#cfcfcf"/>
<path d="M102.675 148.161L91.7703 149.007C80.9266 149.849 71.1723 154.575 64 161.986L68.1683 164C74.5076 157.929 82.8687 154.075 92.1084 153.357L103.012 152.509C125.652 150.752 143.389 131.585 143.389 108.879V106.525H139.026V108.879C139.026 129.323 123.06 146.579 102.675 148.161Z" fill="#5A4845"/>
<path d="M144.452 98.6769C144.452 120.825 126.496 138.782 104.345 138.782C82.1962 138.782 64.2393 120.825 64.2393 98.6769C64.2393 76.5269 82.1962 58.5716 104.345 58.5716C126.496 58.5716 144.452 76.5269 144.452 98.6769" fill="#5A4845"/>
<path d="M137.092 98.6767C137.092 116.76 122.432 131.42 104.345 131.42C86.2628 131.42 71.6011 116.76 71.6011 98.6767C71.6011 80.5915 86.2628 65.9314 104.345 65.9314C122.432 65.9314 137.092 80.5915 137.092 98.6767Z" fill="#BABABA"/>
<path d="M133.108 98.6767C133.108 114.561 120.231 127.439 104.345 127.439C88.4601 127.439 75.5842 114.561 75.5842 98.6767C75.5842 82.7906 88.4601 69.913 104.345 69.913C120.231 69.913 133.108 82.7906 133.108 98.6767Z" fill="#BABABA"/>
<path d="M129.157 98.6767C129.157 112.377 118.048 123.486 104.345 123.486C90.6441 123.486 79.5358 112.377 79.5358 98.6767C79.5358 84.9729 90.6441 73.8662 104.345 73.8662C118.048 73.8662 129.157 84.9729 129.157 98.6767Z" fill="#BABABA"/>
<path d="M124.917 98.6767C124.917 110.038 115.708 119.247 104.345 119.247C92.9847 119.247 83.7755 110.038 83.7755 98.6767C83.7755 87.3135 92.9847 78.1043 104.345 78.1043C115.708 78.1043 124.917 87.3135 124.917 98.6767Z" fill="#BABABA"/>
<path d="M140.832 98.6769C140.832 120.825 122.876 138.782 100.725 138.782C78.5762 138.782 60.6193 120.825 60.6193 98.6769C60.6193 76.5269 78.5762 58.5716 100.725 58.5716C122.876 58.5716 140.832 76.5269 140.832 98.6769Z" fill="#A58A82"/>
<path d="M133.47 98.6767C133.47 116.76 118.811 131.42 100.725 131.42C82.6411 131.42 67.9793 116.76 67.9793 98.6767C67.9793 80.5915 82.6411 65.9314 100.725 65.9314C118.811 65.9314 133.47 80.5915 133.47 98.6767Z" fill="#5A4845"/>
<path d="M129.488 98.6767C129.488 114.561 116.612 127.439 100.725 127.439C84.84 127.439 71.9625 114.561 71.9625 98.6767C71.9625 82.7906 84.84 69.913 100.725 69.913C116.612 69.913 129.488 82.7906 129.488 98.6767Z" fill="#A58A82"/>
<path d="M125.535 98.6767C125.535 112.377 114.428 123.486 100.725 123.486C87.0224 123.486 75.914 112.377 75.914 98.6767C75.914 84.9729 87.0224 73.8662 100.725 73.8662C114.428 73.8662 125.535 84.9729 125.535 98.6767Z" fill="#5A4845"/>
<path d="M121.297 98.6767C121.297 110.038 112.088 119.247 100.725 119.247C89.3647 119.247 80.1538 110.038 80.1538 98.6767C80.1538 87.3135 89.3647 78.1043 100.725 78.1043C112.088 78.1043 121.297 87.3135 121.297 98.6767Z" fill="#A58A82"/>
<path d="M126.24 121.796C125.753 121.508 125.273 121.198 124.8 120.872C125.179 120.46 125.547 120.04 125.905 119.611C126.016 120.34 126.128 121.067 126.24 121.796" fill="#947C75"/>
<path d="M124.8 120.872C123.714 120.119 122.675 119.269 121.712 118.345C122.955 117.019 124.074 115.576 125.05 114.033C125.335 115.891 125.62 117.752 125.905 119.611C125.547 120.041 125.179 120.46 124.8 120.872Z" fill="#51413E"/>
<path d="M121.712 118.344C120.747 117.417 119.861 116.412 119.091 115.356C121.215 113.02 122.9 110.275 124.012 107.254C124.357 109.513 124.704 111.774 125.05 114.033C124.074 115.576 122.955 117.018 121.712 118.344Z" fill="#947C75"/>
<path d="M119.091 115.356C118.173 114.097 117.42 112.765 116.892 111.399C119.651 107.898 121.297 103.48 121.297 98.6768C121.297 98.5202 121.295 98.3653 121.292 98.2103C121.684 97.9405 122.088 97.6856 122.508 97.444C123.01 100.714 123.511 103.984 124.012 107.255C122.9 110.275 121.215 113.02 119.091 115.356" fill="#51413E"/>
<path d="M118.48 71.1574C115.715 69.3699 112.663 67.9872 109.407 67.0943C109.894 65.9281 110.489 64.8486 111.188 63.8973C112.05 62.7245 113.051 61.715 114.152 60.8737C115.646 61.4035 117.101 62.0215 118.507 62.7179H117.179C117.189 63.0644 117.224 63.4026 117.281 63.7341C117.582 66.1363 117.965 68.5003 118.43 70.8226C118.447 70.9342 118.463 71.0458 118.48 71.1574" fill="#947C75"/>
<path d="M119.336 76.7449C116.163 74.0495 112.393 72.0287 108.256 70.9092C108.524 69.5765 108.909 68.2904 109.407 67.0943C112.663 67.9872 115.715 69.3699 118.48 71.1574C118.767 73.0199 119.051 74.8841 119.336 76.7449" fill="#51413E"/>
<path d="M120.376 83.5285C117.237 79.4603 112.863 76.395 107.813 74.894C107.846 73.5496 107.996 72.2069 108.256 70.9092C112.393 72.0287 116.163 74.0494 119.336 76.7449C119.684 79.0072 120.029 81.2662 120.376 83.5285Z" fill="#947C75"/>
<path d="M119.336 89.9007C117.094 85.1528 113.089 81.4012 108.165 79.4904C107.89 77.9994 107.775 76.4451 107.813 74.8941C112.863 76.3951 117.237 79.4604 120.376 83.5286C120.672 85.456 120.967 87.3835 121.262 89.311C120.624 89.5442 119.981 89.7424 119.336 89.9007Z" fill="#51413E"/>
<path d="M70.1334 74.2427C70.0784 73.7896 70.0401 73.3348 70.0218 72.8817C75.0312 66.9244 81.7382 62.4464 89.4014 60.194C90.2443 60.7654 91.039 61.4302 91.7654 62.1865C91.7787 62.1898 91.792 62.1948 91.8037 62.1998C92.2884 62.7046 92.7432 63.251 93.163 63.8358C93.7428 64.6421 94.2692 65.5316 94.7373 66.4779C88.845 67.5657 83.5041 70.2345 79.171 74.0245C77.9882 73.9195 76.7921 73.8662 75.5826 73.8662C73.7334 73.8662 71.9159 73.9978 70.1334 74.2427" fill="#947C75"/>
<path d="M84.5685 74.8774C82.811 74.4743 81.0085 74.1877 79.171 74.0245C83.504 70.2345 88.8449 67.5657 94.7373 66.4779C95.3254 67.6657 95.8185 68.9435 96.2016 70.2662C91.9402 70.9409 87.9903 72.5485 84.5685 74.8774" fill="#51413E"/>
<path d="M89.7262 76.4316C88.0569 75.8019 86.3344 75.2805 84.5685 74.8774C87.9903 72.5484 91.9402 70.9408 96.2016 70.2661C96.5681 71.5339 96.8346 72.8416 96.9829 74.146C94.4141 74.5358 91.9735 75.3171 89.7262 76.4316Z" fill="#947C75"/>
<path d="M95.0472 78.8973C93.3446 77.9511 91.5688 77.1265 89.7263 76.4318C91.9736 75.3173 94.4141 74.536 96.983 74.1461C97.1496 75.5972 97.1729 77.0465 97.0313 78.4359C96.3583 78.5575 95.6969 78.7124 95.0472 78.8973Z" fill="#51413E"/>
<path d="M116.892 111.399C115.969 109.01 115.738 106.52 116.526 104.144C117.317 101.755 119.048 99.7579 121.292 98.2103C121.295 98.3652 121.297 98.5201 121.297 98.6767C121.297 103.48 119.651 107.898 116.892 111.399V111.399ZM117.707 90.2172C116.074 89.984 114.525 89.3976 113.144 88.383C110.469 86.4156 108.839 83.1387 108.165 79.4904C113.089 81.4012 117.094 85.1528 119.336 89.9007C118.793 90.0339 118.248 90.1406 117.707 90.2172V90.2172ZM96.8097 79.9368C96.2316 79.577 95.6452 79.2305 95.0471 78.8973C95.6968 78.7124 96.3582 78.5574 97.0312 78.4358C96.9796 78.9456 96.9063 79.447 96.8097 79.9368" fill="#947C75"/>
<path d="M68.021 94.8868C75.8775 92.3829 87.8954 96.7426 90.3993 104.597C92.9015 112.456 84.9434 120.832 77.0869 123.337C69.2305 125.84 60.8309 121.501 58.327 113.645C55.8248 105.789 60.1645 97.389 68.021 94.8868ZM75.9658 60.394C82.6644 55.5845 91.9919 57.1171 96.8014 63.8157C101.609 70.5144 102.892 82.9072 95.7802 87.077C87.3323 92.0281 76.5388 87.9949 72.544 81.2296C68.3525 74.1294 69.2688 65.2035 75.9658 60.394ZM118.537 132.028C118.49 140.273 111.766 146.922 103.522 146.873C95.2771 146.827 88.6317 140.105 88.6784 131.86C88.7234 123.614 95.467 113.347 103.712 113.395C111.958 113.442 118.583 123.784 118.537 132.028V132.028ZM111.188 63.8974C116.071 57.2537 125.417 55.8293 132.061 60.7138C138.703 65.5983 140.13 74.9408 135.244 81.5844C130.36 88.2298 119.788 93.2675 113.144 88.3831C106.502 83.5003 106.304 70.541 111.188 63.8974V63.8974ZM149.093 114.161C146.499 121.988 138.053 126.231 130.225 123.639C122.395 121.047 113.932 111.972 116.526 104.144C119.116 96.3178 131.786 92.7011 139.614 95.2933C147.439 97.8871 151.685 106.332 149.093 114.161ZM103.487 153.312C133.397 153.484 157.779 129.375 157.949 99.4647C158.122 69.5548 134.01 45.1708 104.101 45.0009C74.1915 44.8309 49.8075 68.9401 49.6376 98.85C49.4693 128.76 73.5768 153.144 103.487 153.312" fill="#ABA7B4"/>
<path d="M64.3826 94.9069C72.2408 92.4047 84.2604 96.7644 86.7643 104.619C89.2648 112.476 81.3067 120.854 73.4502 123.357C65.5921 125.861 57.1959 121.522 54.692 113.665C52.1881 105.81 56.5278 97.4091 64.3826 94.9069V94.9069ZM72.3291 60.414C79.0261 55.6062 88.3569 57.1388 93.163 63.8358C97.9726 70.5362 99.257 82.9272 92.1419 87.097C83.6957 92.0498 72.9005 88.015 68.9073 81.2497C64.7141 74.1495 65.6304 65.2252 72.3291 60.414ZM114.9 132.05C114.853 140.295 108.13 146.94 99.885 146.895C91.6404 146.849 84.9934 140.125 85.04 131.879C85.0883 123.634 91.8286 113.369 100.075 113.414C108.32 113.462 114.947 123.806 114.9 132.05V132.05ZM107.55 63.9175C112.436 57.2754 121.78 55.8494 128.424 60.7339C135.066 65.6183 136.492 74.9625 131.607 81.6062C126.723 88.2498 116.151 93.2876 109.507 88.4048C102.865 83.5203 102.667 70.5611 107.55 63.9175V63.9175ZM145.455 114.18C142.861 122.01 134.415 126.251 126.588 123.661C118.76 121.067 110.295 111.993 112.887 104.166C115.481 96.3379 128.147 92.7212 135.975 95.315C143.802 97.9072 148.048 106.353 145.455 114.18V114.18ZM99.8484 153.334C129.758 153.504 154.142 129.395 154.311 99.4865C154.484 69.5749 130.371 45.1926 100.463 45.0226C70.5532 44.8527 46.1708 68.9602 46.0009 98.8718C45.831 128.782 69.9385 153.166 99.8484 153.334" fill="#CFCFD7"/>
<path d="M92.2584 98.9233C92.2851 94.247 96.0983 90.4771 100.775 90.5037C105.449 90.5304 109.219 94.3437 109.192 99.0182C109.166 103.694 105.354 107.464 100.678 107.436C96.0017 107.411 92.2334 103.599 92.2584 98.9233" fill="#A58A82"/>
<path d="M100.788 88.1781C94.6924 88.1781 89.7579 93.0843 89.7263 99.1149C89.708 102.054 90.8374 104.822 92.9032 106.911C94.9689 109.002 97.7243 110.162 100.663 110.178L100.725 110.631V110.178C106.757 110.178 111.69 105.272 111.725 99.2399C111.741 96.3028 110.612 93.5341 108.546 91.4434C106.48 89.3543 103.725 88.1948 100.788 88.1781V88.1781ZM100.725 111.086H100.656C97.4761 111.066 94.4941 109.812 92.2568 107.549C90.0211 105.287 88.8 102.292 88.8183 99.1099C88.8533 92.5812 94.1943 87.2702 100.721 87.2702C103.973 87.2886 106.957 88.5446 109.191 90.807C111.428 93.0676 112.651 96.0663 112.631 99.2465C112.594 105.774 107.253 111.086 100.725 111.086" fill="#A58A82"/>
<path d="M96.3899 99.1498C96.4032 96.7559 98.3557 94.8251 100.75 94.8384C103.144 94.8534 105.074 96.8042 105.059 99.1981C105.046 101.592 103.094 103.523 100.701 103.508C98.3057 103.495 96.3766 101.544 96.3899 99.1498Z" fill="#5A4845"/>
<path d="M100.723 49.454C73.3036 49.454 50.9986 71.759 50.9986 99.1783C50.9986 126.596 73.3036 148.903 100.723 148.903C128.141 148.903 150.449 126.596 150.449 99.1783C150.449 71.759 128.141 49.454 100.723 49.454V49.454ZM100.723 149.811C72.8055 149.811 50.0923 127.096 50.0923 99.1783C50.0923 71.2592 72.8055 48.5461 100.723 48.5461C128.642 48.5461 151.357 71.2592 151.357 99.1783C151.357 127.096 128.642 149.811 100.723 149.811" fill="#A58A82"/>
<path d="M99.5818 45.0242H99.5851C99.5835 45.0242 99.5835 45.0242 99.5818 45.0242ZM99.6601 45.0225C99.6634 45.0225 99.6668 45.0225 99.6701 45.0225C99.6668 45.0225 99.6651 45.0225 99.6601 45.0225ZM99.7417 45.0225C99.745 45.0225 99.75 45.0225 99.7534 45.0225C99.75 45.0225 99.745 45.0225 99.7417 45.0225ZM99.8233 45.0225C99.8267 45.0225 99.83 45.0225 99.8333 45.0225C99.83 45.0225 99.8283 45.0225 99.8233 45.0225ZM99.9066 45.0208C99.91 45.0208 99.9116 45.0208 99.915 45.0208C99.9116 45.0208 99.91 45.0208 99.9066 45.0208ZM99.9883 45.0208C99.9916 45.0208 99.9949 45.0208 99.9999 45.0208C99.9949 45.0208 99.9916 45.0208 99.9883 45.0208Z" fill="white"/>
<path d="M140.202 62.7179H135.822C126.715 53.9468 114.337 48.5459 100.723 48.5459C89.398 48.5459 78.9294 52.2842 70.4865 58.5897C70.3183 58.5881 70.15 58.5864 69.9801 58.5847C69.8601 58.5847 69.7385 58.5847 69.6169 58.5847C67.7444 58.5847 65.8902 58.6664 64.0577 58.8097C73.5102 50.3501 85.9462 45.1641 99.5818 45.0242C99.5834 45.0242 99.5834 45.0242 99.5851 45.0242C99.6118 45.0242 99.6351 45.0242 99.6601 45.0225C99.6651 45.0225 99.6667 45.0225 99.6701 45.0225C99.6934 45.0225 99.7184 45.0225 99.7417 45.0225C99.745 45.0225 99.75 45.0225 99.7534 45.0225C99.7767 45.0225 99.8 45.0225 99.8233 45.0225C99.8283 45.0225 99.83 45.0225 99.8333 45.0225C99.8583 45.0225 99.8816 45.0225 99.9066 45.0209C99.91 45.0209 99.9116 45.0209 99.915 45.0209C99.9383 45.0209 99.9633 45.0209 99.9882 45.0209C99.9916 45.0209 99.9949 45.0209 99.9999 45.0209C100.05 45.0209 100.1 45.0209 100.152 45.0209C100.255 45.0209 100.36 45.0209 100.463 45.0225C116.219 45.1108 130.366 51.9211 140.202 62.7179" fill="#DEDEE3"/>
<path d="M105.269 68.492C105.266 68.4903 105.263 68.4887 105.259 68.487C105.817 66.7911 106.585 65.2318 107.55 63.9174C110.477 59.9392 115.003 57.8318 119.591 57.8318C120.169 57.8318 120.747 57.8651 121.324 57.9318C120.747 57.8651 120.169 57.8318 119.591 57.8318C115.003 57.8318 110.477 59.9392 107.55 63.9174C106.585 65.2318 105.827 66.7961 105.269 68.492Z" fill="#C5C2CB"/>
<path d="M89.3996 60.1923C87.3839 58.8263 85.0816 57.9883 82.7076 57.7185C82.7243 57.7168 82.741 57.7151 82.7576 57.7118C85.1216 57.9883 87.4155 58.8246 89.423 60.1857C89.4146 60.189 89.4063 60.1907 89.3996 60.1923" fill="white"/>
<path d="M89.4014 60.194C89.3997 60.1922 89.3997 60.1922 89.3997 60.1922C89.4068 60.1904 89.4156 60.1887 89.4245 60.1851C89.4245 60.1851 89.4245 60.1851 89.4245 60.1869C89.4174 60.1887 89.4085 60.1904 89.4014 60.194" fill="#C1AEA9"/>
<path d="M91.8036 62.1998C91.7919 62.1948 91.7786 62.1898 91.7653 62.1865C91.0389 61.4301 90.2443 60.7654 89.4013 60.194C89.408 60.1907 89.4163 60.189 89.423 60.1874C90.2743 60.7638 91.0739 61.4368 91.8036 62.1998Z" fill="#B5A5A0"/>
<path d="M75.166 58.8213C75.1577 58.8213 75.1511 58.8213 75.1444 58.8196C77.0319 58.0083 79.0343 57.6118 81.0218 57.6118C81.6032 57.6118 82.1812 57.6452 82.7576 57.7118C82.741 57.7151 82.7243 57.7168 82.7077 57.7185C82.1462 57.6552 81.5815 57.6218 81.0151 57.6218C79.036 57.6218 77.0452 58.015 75.166 58.8213" fill="#C5C2CB"/>
<path d="M105.259 68.4869C101.096 65.9348 96.5881 63.8124 91.8036 62.1998C91.0739 61.4368 90.2743 60.7638 89.423 60.1874C89.423 60.1857 89.423 60.1857 89.423 60.1857C87.4156 58.8246 85.1216 57.9883 82.7576 57.7118C82.1812 57.6452 81.6032 57.6118 81.0218 57.6118C79.0343 57.6118 77.0319 58.0083 75.1444 58.8196C74.0932 58.738 73.0353 58.6714 71.9708 58.6297C80.0938 52.854 90.0194 49.4538 100.723 49.4538C113.752 49.4538 125.627 54.4899 134.501 62.7179H130.629C130.276 62.3314 129.901 61.9599 129.502 61.605C129.16 61.3018 128.8 61.0103 128.424 60.7337C126.261 59.1445 123.813 58.2232 121.324 57.9317C120.747 57.8651 120.169 57.8317 119.591 57.8317C115.003 57.8317 110.477 59.9391 107.55 63.9173C106.585 65.2317 105.817 66.791 105.259 68.4869" fill="#DEDEE3"/>
<path d="M135.822 62.7179H134.501C125.627 54.4899 113.752 49.4538 100.723 49.4538C90.0194 49.4538 80.0938 52.854 71.9708 58.6297C71.4777 58.6114 70.983 58.5981 70.4865 58.5897C78.9294 52.2842 89.398 48.5459 100.723 48.5459C114.337 48.5459 126.715 53.9468 135.822 62.7179" fill="#C1AEA9"/>
<path d="M118.43 70.8226C117.965 68.5003 117.582 66.1363 117.281 63.7341C117.33 64.0273 117.397 64.3155 117.475 64.5987C117.794 66.6728 118.112 68.7468 118.43 70.8226Z" fill="#9B7D6B"/>
</svg>
